<svg width="580" height="457" xmlns="http://www.w3.org/2000/svg" xmlns:xlink="http://www.w3.org/1999/xlink" overflow="hidden"><defs><clipPath id="clip0"><rect x="112" y="-51" width="580" height="457"/></clipPath></defs><g clip-path="url(#clip0)" transform="translate(-112 51)"><path d="M170.061 292.176 116.926 315 166.136 336.045 223.196 315 170.061 292.176ZM90.1759 320.706 88.3955 423.415 166.135 457.652 166.135 351.018 90.1759 320.706ZM249.946 320.706 179.693 347.456 179.693 448.021 249.946 419.49 249.946 320.706ZM333.757 1.16596 280.257 23.9908 329.831 45.0346 386.891 23.9908 333.757 1.16596ZM259.578 31.4884 259.578 134.198 325.906 153.461 328.051 60.0182 259.578 31.4884ZM407.936 37.194 345.17 63.9444 345.17 164.874 407.937 136.343 407.937 37.194ZM82.507 145.724 29.372 168.548 78.5814 189.593 135.642 168.548 82.507 145.724ZM2.62208 174.254 0.841669 276.964 78.5814 311.2 78.5814 204.565 2.62208 174.254ZM162.392 174.254 92.1393 201.004 92.1393 301.568 162.392 273.038 162.392 174.254ZM253.69 141.935 200.555 164.759 249.764 185.803 306.825 164.759 253.69 141.935ZM173.804 170.466 172.024 273.175 249.763 307.411 249.763 200.788 173.804 170.466ZM333.574 170.466 263.321 197.216 263.321 297.78 333.574 269.249 333.574 170.466ZM500.957 1.16596 447.822 23.9902 497.032 45.0341 554.092 23.9902 500.957 1.16596ZM421.071 29.6963 419.291 132.406 497.031 166.642 497.031 60.0182 421.071 29.6963ZM580.842 29.6963 510.588 56.4462 510.588 157.01 580.842 128.48 580.842 29.6963Z" fill="#FFFFFF" transform="matrix(1 0 0 1.00093 111.158 -52.1222)"/></g></svg>