<svg width="264" height="284" xmlns="http://www.w3.org/2000/svg" xmlns:xlink="http://www.w3.org/1999/xlink" overflow="hidden"><defs><clipPath id="clip0"><rect x="603" y="210" width="264" height="284"/></clipPath></defs><g clip-path="url(#clip0)" transform="translate(-603 -210)"><path d="M852.376 445.251C851.277 446.45 849.979 448.448 848.18 449.547 834.095 457.838 820.01 465.93 805.925 474.121 799.332 477.917 792.739 481.713 786.246 485.609 783.049 487.507 780.352 487.307 777.255 485.309 771.861 481.713 766.067 478.816 760.873 474.92 758.076 472.822 755.478 469.626 754.08 466.429 743.691 442.055 733.601 417.481 723.412 393.007 719.716 384.116 716.12 375.325 712.324 366.435 710.526 362.239 709.926 362.039 705.931 364.337 684.853 376.724 663.675 389.211 642.598 401.797 639.801 403.496 637.503 403.695 634.706 401.897 631.11 399.5 627.214 397.402 623.518 395.204 619.522 392.807 619.222 391.908 621.32 387.712 629.312 371.829 637.403 355.946 645.495 339.963 658.781 313.591 672.066 287.218 685.352 260.746 687.45 256.551 690.347 253.454 694.443 251.157 714.222 239.868 733.901 228.381 753.48 216.893 757.376 214.595 760.673 214.295 764.569 216.793 768.664 219.49 773.16 221.388 777.155 224.185 779.453 225.783 781.751 228.181 782.55 230.778 789.043 249.758 795.136 268.838 801.43 287.918 803.528 294.211 803.428 294.411 798.133 298.606 783.848 309.795 778.055 324.379 781.651 342.26 785.447 361.04 802.728 375.325 821.908 375.825 823.107 375.825 824.406 375.925 825.604 375.825 828.401 375.725 830.199 376.824 831.198 379.721 837.991 400.399 844.784 421.077 851.577 441.855 851.976 442.454 851.976 443.354 852.376 445.251ZM775.657 476.918C775.557 476.019 775.457 475.619 775.357 475.12 754.579 411.187 733.701 347.255 712.823 283.323 710.226 275.331 706.43 268.139 698.638 263.943 692.445 260.646 692.045 260.746 688.849 267.04 688.449 267.839 688.05 268.638 687.65 269.337 667.971 308.296 648.292 347.055 628.612 385.814 627.014 388.911 627.414 391.009 630.61 392.507 631.509 392.907 632.408 393.406 633.307 393.806 638.002 396.403 638.002 396.403 641.299 391.908 658.381 368.732 675.463 345.557 692.645 322.381 696.641 316.987 698.339 317.187 700.936 323.18 703.833 329.973 706.63 336.766 709.427 343.559 726.309 383.916 743.091 424.174 760.073 464.531 760.773 466.229 761.772 468.027 763.17 469.026 766.866 471.823 771.162 474.221 775.657 476.918ZM697.34 256.551C700.736 258.549 703.533 259.947 706.031 261.645 709.227 263.843 711.924 263.743 715.321 261.745 733.202 251.157 751.183 240.867 769.164 230.378 770.163 229.779 771.062 229.08 772.46 228.181 769.364 226.383 766.667 225.084 764.269 223.386 760.873 220.988 757.876 221.088 754.38 223.286 742.492 230.478 730.305 237.271 718.318 244.264 711.425 248.26 704.732 252.255 697.34 256.551Z" fill="#FFFFFF"/><path d="M795.736 332.67C795.436 318.186 807.523 305.599 822.108 305.199 836.992 304.8 850.078 317.287 850.378 332.171 850.678 347.455 838.391 360.341 823.207 360.641 808.223 360.941 796.036 348.554 795.736 332.67ZM801.63 332.571C801.33 332.67 801.03 332.87 800.731 332.97 802.429 337.066 803.727 341.261 805.825 345.057 806.624 346.456 809.022 347.655 810.72 347.655 823.307 347.355 836.593 336.966 839.889 324.679 840.389 322.781 839.689 319.884 838.391 318.385 832.597 311.593 823.107 309.595 814.616 312.991 806.924 315.888 801.63 323.98 801.63 332.571Z" fill="#FFFFFF"/></g></svg>