<svg width="236" height="236" xmlns="http://www.w3.org/2000/svg" xmlns:xlink="http://www.w3.org/1999/xlink" overflow="hidden"><defs><clipPath id="clip0"><rect x="79" y="43" width="236" height="236"/></clipPath></defs><g clip-path="url(#clip0)" transform="translate(-79 -43)"><path d="M140.079 235.262C137.129 234.387 133.58 231.114 132.289 228.072 130.077 222.863 131.367 217.009 135.608 213.184 139.48 209.68 139.249 209.727 166.813 209.727L191.059 209.727 136.115 154.783C75.3633 93.9852 78.8203 97.8109 78.8203 91.7266 78.8203 82.2313 88.6383 76.0086 97.2578 80.0188 99.4703 81.0328 107.076 88.4078 154.783 136.115L209.727 191.059 209.727 166.813C209.727 139.249 209.68 139.48 213.184 135.608 218.484 129.708 227.242 129.754 232.543 135.608 236.184 139.664 236.046 137.267 235.908 184.652L235.77 226.551 234.755 228.441C233.188 231.345 231.713 232.912 228.994 234.387L226.551 235.77 184.375 235.862C148.791 235.954 141.877 235.862 140.079 235.262Z" fill="#FFFFFF" transform="matrix(1 0 0 -1 79 279)"/><path d="M32.4961 209.22C20.1891 206.915 9.67969 199.033 4.01016 187.74 3.31875 186.449 2.2125 183.545 1.52109 181.287L0.230469 177.23 0.0921875 106.938C0 58.7695 0.138281 35.6305 0.460938 33.4641 1.79766 24.8445 5.20859 18.2992 11.7539 11.7539 18.2992 5.20859 24.8445 1.79766 33.4641 0.460938 35.6305 0.138281 58.7695 0 106.938 0.0921875L177.23 0.230469 181.287 1.52109C196.267 6.17656 206.546 17.7922 209.22 32.9109 209.542 34.6625 209.727 46.4625 209.727 64.8078 209.727 92.8328 209.68 94.0773 208.805 96.4281 206.961 101.36 201.937 104.771 196.544 104.725 191.473 104.679 187.417 102.19 184.928 97.4883L183.684 95.1836 183.453 65.4531 183.223 35.7227 182.163 33.5563C181.563 32.3578 180.134 30.5602 179.028 29.5461 175.018 26.043 180.549 26.2734 105.094 26.2734 28.3938 26.2734 34.5242 25.9508 30.2836 30.0992 25.9047 34.3398 26.2734 27.6562 26.2734 104.863 26.2734 180.549 26.043 175.018 29.5461 179.028 30.5602 180.134 32.3578 181.563 33.5563 182.163L35.7227 183.223 65.2227 183.453 94.7227 183.684 97.1195 184.79C103.48 187.648 106.523 195.438 103.757 201.706 102.374 204.841 99.4242 207.698 96.4281 208.805 94.0773 209.68 92.8789 209.727 64.393 209.68 48.1219 209.634 33.7867 209.45 32.4961 209.22Z" fill="#FFFFFF" transform="matrix(1 0 0 -1 79 279)"/></g></svg>