<svg width="511" height="511" xmlns="http://www.w3.org/2000/svg" xmlns:xlink="http://www.w3.org/1999/xlink" overflow="hidden"><defs><clipPath id="clip0"><rect x="384" y="104" width="511" height="511"/></clipPath></defs><g clip-path="url(#clip0)" transform="translate(-384 -104)"><path d="M239.356 507.664C234.82 505.396 225.08 496.724 208.136 479.646L183.453 454.963 212.805 425.611 242.158 396.258 252.164 397.059C265.106 398.126 274.846 394.791 283.385 386.119 292.057 377.58 295.393 367.84 294.325 354.898L293.525 344.892 321.009 317.407 348.494 289.789 359.568 290.59C369.308 291.123 371.442 290.856 377.846 287.921 402.396 276.714 408.8 247.628 391.189 228.015 382.249 218.009 376.512 215.474 362.903 215.474 353.831 215.474 350.495 216.141 346.226 218.409 339.421 222.011 330.349 231.751 327.547 238.422 325.012 244.159 324.345 255.367 325.946 263.505L327.013 268.842 300.196 295.526 273.512 322.21 273.512 251.364 273.512 180.518 276.981 178.65C282.451 175.715 290.456 165.842 292.724 159.17 297.794 144.494 293.792 129.551 282.051 118.878 269.242 107.137 254.433 105.135 239.223 112.874 221.344 122.08 213.606 143.827 221.878 161.839 225.347 169.577 232.952 177.716 238.956 180.384L242.825 182.119 242.825 252.965 242.825 323.945 239.089 325.412C233.486 327.814 224.68 337.287 221.478 344.625 218.276 351.696 217.742 363.837 220.144 370.108 221.611 374.111 221.344 374.378 191.858 403.863L162.106 433.616 84.3217 355.966C25.3499 296.86 5.8705 276.58 3.33551 271.644-1.60104 261.771-1.3342 248.562 3.86919 239.49 6.5376 235.087 45.7632 194.927 121.679 119.144 209.737 31.2204 236.821 4.80313 241.491 2.80183 248.829-0.533681 262.171-0.933943 269.242 2.00131 276.047 4.93655 504.863 233.219 508.465 240.824 511.934 248.162 511.801 261.637 508.198 269.509 506.197 274.179 479.78 301.263 391.856 389.321 316.073 465.237 275.913 504.462 271.51 507.131 262.438 512.334 249.229 512.601 239.356 507.664Z" fill="#FFFFFF" transform="matrix(1 0 0 -1 384 615)"/></g></svg>