<svg width="477" height="477" xmlns="http://www.w3.org/2000/svg" xmlns:xlink="http://www.w3.org/1999/xlink" overflow="hidden"><defs><clipPath id="clip0"><rect x="302" y="75" width="477" height="477"/></clipPath></defs><g clip-path="url(#clip0)" transform="translate(-302 -75)"><path d="M217.165 475.975C173.378 472.062 130.616 455.479 94.1889 428.275 82.6365 419.704 57.2959 394.363 48.7248 382.811-6.89414 308.373-15.3721 211.576 26.4586 129.684 52.824 78.2578 97.4496 38.0109 152.044 16.3969 166.764 10.6207 172.633 10.7139 177.198 16.8627 178.875 19.0986 179.061 20.9619 178.968 43.4145 178.875 56.6437 178.689 67.5439 178.502 67.7303 178.316 67.9166 175.987 67.5439 173.192 66.8918 170.304 66.2396 161.919 65.6807 153.721 65.6807 141.144 65.6807 138.349 65.9602 132.293 67.9166 123.815 70.5252 120.182 72.3885 113.94 77.0467 107.046 82.2639 102.574 88.3195 96.0521 101.549 89.6238 114.778 82.916 123.629 75.4629 128.846 68.1029 133.877 63.3516 138.535 63.3516 140.678 63.3516 146.454 76.7672 147.013 88.04 141.609 96.2385 137.696 104.53 129.871 111.517 119.529 126.703 96.7975 146.733 90.1828 173.471 98.8471L179.62 100.804 181.111 107.325C182.974 115.43 187.073 124.095 191.452 129.312 193.315 131.454 194.527 133.225 194.061 133.225 191.359 133.318 175.242 136.113 168.627 137.696 145.336 143.286 128.287 152.137 115.151 165.553 95.1205 185.862 85.6178 215.302 86.9221 253.779 87.3879 269.71 89.158 278.002 94.4684 290.113 96.7043 295.051 104.623 307.721 109.002 313.031L110.865 315.36 108.816 321.416C107.139 326.447 106.859 329.801 106.766 341.446 106.673 355.7 107.232 359.334 111.145 372.097L113.194 378.432 121.579 377.967C134.995 377.221 149.062 371.818 169.372 359.52L179.061 353.744 187.539 355.7C205.52 359.986 214.464 360.918 238.5 360.918 262.35 360.918 270.269 360.079 289.74 355.7L298.591 353.744 305.485 358.123C324.397 370.327 341.726 377.221 355.421 377.967L363.806 378.432 365.855 372.097C371.259 355.328 372.19 334.273 368.091 321.416L366.135 315.36 367.998 313.031C372.377 307.721 380.296 295.051 382.532 290.113 387.842 278.188 389.612 269.71 390.078 253.872 392.128 194.527 368.464 156.329 320.391 141.144 312.659 138.721 299.243 135.647 291.604 134.622 289.274 134.343 286.293 133.877 284.803 133.597L282.287 133.038 285.641 129.219C289.74 124.374 293.839 115.896 295.889 107.977 297.193 103.039 297.566 95.0273 298.032 59.9045L298.591 17.7012 301.106 15.2789C302.97 13.3225 304.74 12.6703 308.559 12.2977 312.845 12.0182 315.081 12.484 324.677 16.3037 380.482 38.3836 425.108 79.0031 451.753 132.013 485.478 199.278 485.198 279.399 451.007 346.384 438.616 370.513 426.971 386.351 406.661 406.661 386.351 426.971 370.513 438.616 346.384 451.007 306.882 471.131 261.512 479.888 217.165 475.975Z" fill="#FFFFFF" transform="matrix(1 0 0 -1 302 552)"/><path d="M84.6861 137.79C83.6613 137.044 83.7545 136.579 85.6178 134.995 88.2264 132.852 89.9033 133.131 89.9033 135.554 89.9033 137.51 86.5494 139.001 84.6861 137.79Z" fill="#FFFFFF" transform="matrix(1 0 0 -1 302 552)"/><path d="M94.7479 129.778C92.6051 127.635 96.4248 122.511 99.3129 123.629 101.269 124.374 100.897 127.355 98.5676 128.939 96.2385 130.616 95.5863 130.709 94.7479 129.778Z" fill="#FFFFFF" transform="matrix(1 0 0 -1 302 552)"/><path d="M104.064 117.666C102.853 116.455 103.412 113.008 105.089 111.517 107.139 109.654 109.934 109.468 110.027 111.145 110.493 115.617 106.393 120.088 104.064 117.666Z" fill="#FFFFFF" transform="matrix(1 0 0 -1 302 552)"/><path d="M115.244 103.692C113.753 102.294 114.685 98.7539 116.921 97.2633 119.809 95.4 122.418 95.8658 122.79 98.4744 123.349 102.015 117.48 106.021 115.244 103.692Z" fill="#FFFFFF" transform="matrix(1 0 0 -1 302 552)"/><path d="M130.709 92.6051C129.871 90.4623 131.454 88.3195 134.529 87.2947 137.417 86.3631 139.746 87.7606 139.746 90.4623 139.746 93.8162 131.92 95.5863 130.709 92.6051Z" fill="#FFFFFF" transform="matrix(1 0 0 -1 302 552)"/><path d="M169.186 91.9529C166.95 90.276 167.602 87.2016 170.397 86.8289 175.521 86.0836 179.248 89.0648 176.919 91.8598 175.521 93.5367 171.329 93.5367 169.186 91.9529Z" fill="#FFFFFF" transform="matrix(1 0 0 -1 302 552)"/><path d="M150.833 89.4375 148.597 87.5742 150.833 85.7109C153.255 83.6613 154.839 83.3818 157.54 84.7793 160.988 86.6426 158.752 91.3008 154.373 91.3008 153.628 91.3008 152.044 90.4623 150.833 89.4375Z" fill="#FFFFFF" transform="matrix(1 0 0 -1 302 552)"/></g></svg>