<svg width="692" height="720" xmlns="http://www.w3.org/2000/svg" xmlns:xlink="http://www.w3.org/1999/xlink" overflow="hidden"><defs><clipPath id="clip0"><rect x="0" y="-97" width="692" height="720"/></clipPath></defs><g clip-path="url(#clip0)" transform="matrix(1 0 0 1 0 97)"><path d="M72.66 680.755C35.4073 659.245 4.152 641.023 3.22933 640.158 2.30667 639.35 1.211 637.851 0.807333 636.813-0.403667 634.045-0.403667 174.442 0.807333 171.674 1.211 170.636 2.30667 169.136 3.22933 168.329 4.152 167.464 65.221 132.057 138.977 89.614L273.052 12.3983 277.088 12.3983 281.125 12.3983 415.2 89.5563C488.956 131.999 550.025 167.464 550.947 168.271 554.696 171.789 554.407 166.368 554.753 247.909L555.042 321.953 618.417 358.456C653.306 378.524 682.6 395.536 683.523 396.17 684.446 396.862 685.657 398.534 686.291 399.803 687.329 402.11 687.387 405.051 687.387 480.709 687.387 565.941 687.56 561.327 684.273 564.672 683.408 565.479 652.21 583.76 614.842 605.269L546.968 644.367 543.22 644.425 539.472 644.425 473.443 606.423C437.113 585.547 406.146 567.671 404.647 566.748 402.975 565.652 401.302 563.922 400.322 562.308L398.765 559.655 398.592 485.496 398.477 411.394 343.693 379.85C313.534 362.493 288.795 348.307 288.622 348.307 288.449 348.307 288.333 412.778 288.333 491.608 288.333 633.584 288.333 634.968 287.18 637.217 286.546 638.428 285.219 640.1 284.181 640.85 283.143 641.657 252.176 659.591 215.385 680.813L148.492 719.334 144.455 719.565 140.418 719.738 72.66 680.755ZM199.123 663.743C229.167 646.443 253.733 632.2 253.733 632.027 253.733 631.854 229.052 617.552 198.892 600.195L144.051 568.651 89.3257 600.195C59.2237 617.495 34.6 631.854 34.6 632.027 34.6 632.43 143.763 695.402 144.224 695.287 144.397 695.229 169.079 681.043 199.123 663.743ZM594.601 590.449C622.339 574.533 646.847 560.405 649.096 559.078L653.19 556.772 598.695 525.401C568.709 508.101 543.739 493.973 543.22 493.973 542.701 493.915 517.731 508.043 487.687 525.343L433.077 556.714 436.364 558.617C438.209 559.655 462.833 573.841 491.032 590.161 519.288 606.48 542.759 619.744 543.278 619.686 543.797 619.571 566.921 606.423 594.601 590.449ZM265.44 334.986C265.151 334.755 241.22 320.857 212.213 304.192 183.207 287.468 158.583 273.282 157.545 272.648L155.7 271.495 155.815 410.298 155.988 549.102 210.772 580.588 265.555 612.132 265.728 473.789C265.786 397.669 265.67 335.216 265.44 334.986ZM55.9367 592.986C73.525 582.837 97.9757 568.766 110.316 561.731L132.633 548.871 132.633 399.688C132.633 297.387 132.806 249.87 133.268 248.37 133.556 247.159 134.594 245.372 135.517 244.334 136.612 243.123 158.814 230.263 201.487 206.158L265.786 169.828 265.843 106.51C265.843 71.6797 265.613 43.25 265.382 43.3653 265.094 43.4807 210.31 74.9667 143.705 113.315L22.49 183.092 22.49 397.554C22.49 568.824 22.663 611.901 23.2397 611.67 23.5857 611.555 38.3483 603.136 55.9367 592.986ZM476.327 505.448C505.967 488.379 530.591 474.135 530.995 473.789 531.514 473.27 531.687 460.18 531.571 410.702L531.398 348.307 476.5 379.85 421.543 411.452 421.543 474.193C421.543 508.735 421.716 536.819 422.005 536.704 422.235 536.531 446.686 522.46 476.327 505.448ZM664.205 411.394C663.801 411.048 639.177 396.804 609.537 379.735 579.896 362.666 555.445 348.653 555.215 348.48 554.926 348.364 554.753 376.448 554.753 410.99L554.753 473.732 609.71 505.333 664.608 536.877 664.781 474.481C664.897 425.003 664.724 411.913 664.205 411.394ZM465.774 359.667 520.038 328.412 518.539 327.489C512.426 323.683 277.088 189.723 276.8 189.839 275.474 190.358 167.349 251.773 167.522 251.888 167.637 252.003 222.19 283.489 288.737 321.78 357.879 361.685 410.068 391.384 410.587 391.211 411.048 391.038 435.902 376.852 465.774 359.667ZM531.687 245.775 531.687 183.092 410.529 113.315C343.866 74.909 289.141 43.4807 288.852 43.3653 288.564 43.25 288.333 70.065 288.333 106.51L288.391 169.828 409.895 239.144C476.73 277.261 531.456 308.459 531.571 308.517 531.629 308.517 531.687 280.318 531.687 245.775Z" fill="#FFFFFF" transform="matrix(1 0 0 -1.00044 0 623)"/></g></svg>