<svg width="427" height="427" xmlns="http://www.w3.org/2000/svg" xmlns:xlink="http://www.w3.org/1999/xlink" overflow="hidden"><defs><clipPath id="clip0"><rect x="759" y="100" width="427" height="427"/></clipPath></defs><g clip-path="url(#clip0)" transform="translate(-759 -100)"><path d="M67.3859 380.43C40.4316 367.754 34.4269 334.528 55.1097 313.178 58.1787 310.109 63.1159 306.372 66.0516 304.905 72.59 301.702 88.7359 300.635 96.6087 302.903 105.149 305.305 114.623 313.044 120.094 322.252 124.497 329.858 124.764 330.792 124.764 342.267 124.764 352.142 124.23 355.211 121.695 360.014 110.353 381.364 87.6684 389.904 67.3859 380.43Z" fill="#FFFFFF" transform="matrix(1 0 0 -1 759 527)"/><path d="M286.891 275.548C268.476 271.412 257.801 265.807 245.792 253.932 241.122 249.261 236.718 245.525 236.051 245.525 235.384 245.525 234.85 244.724 234.717 243.924 234.717 242.99 234.183 243.39 233.516 244.858 232.848 246.326 232.315 252.063 232.315 257.534 232.181 263.539 231.514 268.343 230.58 269.277 228.312 271.545 169.332 271.545 167.064 269.277 164.795 267.008 164.795 45.2353 167.064 42.9669 169.332 40.6984 228.312 40.6984 230.58 42.9669 231.781 44.1678 232.181 59.9134 232.181 105.549 232.181 170.533 232.848 179.073 238.987 191.616 242.589 199.222 250.062 206.561 257.401 209.764 266.074 213.633 285.156 213.633 293.696 209.897 299.834 207.095 305.438 201.624 309.041 194.552 314.646 183.61 314.913 180.808 314.913 111.287 314.913 61.2478 315.313 44.1678 316.514 42.9669 319.049 40.4316 382.165 40.6984 384.167 43.2337 385.367 44.7016 385.634 64.8506 385.367 126.365L384.834 207.495 381.098 219.505C374.693 240.321 363.751 255.399 348.138 264.873 330.391 275.682 306.239 279.952 286.891 275.548Z" fill="#FFFFFF" transform="matrix(1 0 0 -1 759 527)"/><path d="M50.9731 269.277C48.7047 267.008 48.7047 45.2353 50.9731 42.9669 53.2416 40.6984 114.89 40.6984 117.158 42.9669 119.427 45.2353 119.427 267.008 117.158 269.277 114.89 271.545 53.2416 271.545 50.9731 269.277Z" fill="#FFFFFF" transform="matrix(1 0 0 -1 759 527)"/></g></svg>