<svg width="667" height="667" xmlns="http://www.w3.org/2000/svg" xmlns:xlink="http://www.w3.org/1999/xlink" overflow="hidden"><defs><clipPath id="clip0"><rect x="225" y="-69" width="667" height="667"/></clipPath></defs><g clip-path="url(#clip0)" transform="translate(-225 69)"><path d="M191.029 580.69 49.358 498.249 49.7582 331.766 50.025 165.149 190.762 83.2416C268.134 38.2858 332.299 1.334 333.233 1.334 334.167 1.334 398.599 38.2858 476.371 83.6418L617.642 165.816 617.375 332.033 616.975 498.249 475.571 580.557C397.799 625.913 333.9 662.998 333.5 662.998 333.1 662.998 269.068 625.913 191.029 580.69ZM455.694 545.739 576.955 475.171 577.222 331.899 577.622 188.761 455.428 117.792 333.367 46.69 211.039 117.926 88.711 189.028 88.3108 331.632 88.044 474.237 209.705 545.206C276.672 584.159 332.166 616.175 332.966 616.175 333.767 616.308 388.994 584.559 455.694 545.739Z" fill="#FFFFFF" transform="matrix(1 0 0 -1 225 598)"/><path d="M237.452 435.551 237.452 422.878 250.125 422.878 262.798 422.878 262.798 435.551 262.798 448.224 250.125 448.224 237.452 448.224 237.452 435.551Z" fill="#FFFFFF" transform="matrix(1 0 0 -1 225 598)"/><path d="M213.04 398.066C212.506 397.532 212.106 391.796 212.106 385.259L212.106 373.52 224.779 373.52 237.452 373.52 237.452 310.822 237.452 248.124 224.779 248.124 211.973 248.124 212.373 235.851 212.773 223.445 250.125 223.445 287.477 223.445 287.877 235.851 288.277 248.124 275.471 248.124 262.798 248.124 262.531 323.228 262.131 398.199 237.986 398.599C224.779 398.733 213.573 398.466 213.04 398.066Z" fill="#FFFFFF" transform="matrix(1 0 0 -1 225 598)"/><path d="M375.788 377.789 354.844 356.845 354.844 310.822 354.844 264.799 375.921 243.722 396.865 222.778 416.875 222.778 436.885 222.778 457.962 243.855 478.906 264.799 478.906 310.822 478.906 356.845 457.829 377.922 436.885 398.866 416.875 398.866 396.865 398.866 375.788 377.789ZM441.821 360.58 454.894 347.507 454.894 310.822 454.894 274.137 441.954 261.197 428.881 248.124 416.875 248.124 404.869 248.124 391.929 261.064 378.856 274.137 378.856 310.822 378.856 347.507 391.796 360.447 404.869 373.52 416.875 373.52 428.881 373.52 441.821 360.58Z" fill="#FFFFFF" transform="matrix(1 0 0 -1 225 598)"/></g></svg>