<svg width="683" height="683" xmlns="http://www.w3.org/2000/svg" xmlns:xlink="http://www.w3.org/1999/xlink" overflow="hidden"><defs><clipPath id="clip0"><rect x="113" y="-47" width="683" height="683"/></clipPath></defs><g clip-path="url(#clip0)" transform="translate(-113 47)"><path d="M25.3457 674.329C8.5375 668.993-2.80137 648.316 1.33398 630.308 4.13535 617.501 10.1383 607.497 30.2814 580.683 52.4256 551.202 55.8939 545.333 60.0293 530.792 61.4967 525.456 65.4986 513.317 68.8336 503.713 84.041 460.892 95.6467 437.814 110.054 421.539 116.323 414.469 116.99 412.468 114.589 408.066 113.122 405.131 105.251 375.917 101.249 357.508 95.9135 333.363 95.7801 295.878 100.849 271.066 108.453 234.381 125.795 203.966 144.737 194.495 159.278 187.158 176.62 193.961 181.955 209.035 183.023 212.104 184.89 221.308 186.091 229.579 188.892 248.655 191.56 262.795 192.627 263.729 193.028 264.129 197.83 255.458 203.166 244.386 208.635 233.447 215.705 220.508 219.04 215.839 228.111 203.299 246.254 184.623 261.728 171.951 269.331 165.814 280.537 155.943 286.807 149.94 297.612 139.668 304.148 134.732 304.148 137 304.148 137.534 301.614 139.935 298.679 142.069 280.67 155.276 245.72 205.434 220.908 253.457 211.437 271.866 196.096 306.416 196.096 309.351 196.096 311.485 193.028 317.488 191.96 317.488 189.959 317.488 174.218 296.411 170.617 288.808 164.747 276.135 160.478 256.258 157.944 228.512 156.877 216.772 156.21 215.705 151.407 216.906 142.603 219.04 133.398 233.447 125.395 257.192 119.258 275.735 116.99 291.342 116.99 316.154 116.857 342.567 119.258 356.974 126.862 378.852 133.265 396.86 137.4 411.401 137.4 415.803 137.4 420.739 133.665 426.875 125.528 435.546 111.254 450.62 101.383 470.496 88.71 510.249 84.5746 523.456 78.9719 539.33 76.4373 545.6 71.2348 558.406 57.7615 579.349 40.8199 600.96 28.0137 617.235 21.3438 629.641 21.3438 636.711 21.3438 652.452 33.6164 656.454 55.7605 647.783 82.5736 637.378 99.115 628.307 115.79 614.433 123.66 608.03 120.325 608.697 159.278 605.629 179.954 604.028 192.361 600.16 218.373 587.353 275.334 559.473 331.762 508.915 369.78 451.954 383.387 431.544 395.126 410.067 400.729 395.393 403.397 388.59 409 375.383 413.268 366.045 417.671 356.574 428.476 332.963 437.413 313.486 461.825 260.394 469.829 247.588 482.235 242.118 485.971 240.384 494.108 237.449 500.378 235.582 506.514 233.714 519.854 229.045 529.859 225.31 545.333 219.44 551.069 216.506 566.543 205.967 576.681 199.164 593.356 187.958 603.761 181.022 620.436 169.683 629.641 161.946 629.641 158.878 629.641 158.211 618.702 157.41 605.362 157.01 578.015 156.076 565.076 153.942 541.998 146.071 525.19 140.469 521.988 139.001 521.054 136.6 519.987 133.665 527.591 118.458 535.728 107.519 541.064 100.449 547.334 94.3127 556.138 87.5094 576.948 71.635 584.419 67.0994 610.031 54.6934 634.71 42.8209 660.589 26.0127 675.263 12.4061 678.731 9.33789 681.799 6.66992 682.2 6.66992 682.6 6.66992 681.533 9.60469 679.798 13.2064 676.597 20.41 662.723 36.151 638.845 60.1627 623.504 75.5035 616.034 80.9729 586.82 98.7149 573.747 106.719 564.275 114.856 561.074 121.126L558.939 125.261 566.677 126.729C570.812 127.662 579.349 129.797 585.619 131.531 591.889 133.265 604.562 135.533 613.766 136.733 628.44 138.468 636.711 140.202 654.319 145.138 656.587 145.805 658.455 147.272 658.721 148.339 659.522 152.741 639.379 175.419 621.904 189.693 585.219 219.841 560.807 235.848 530.526 249.455 517.853 255.191 505.313 260.661 502.379 261.594 499.577 262.662 495.442 265.196 493.307 267.464 486.771 274.134 442.616 365.912 426.608 406.198 419.538 424.074 412.201 437.68 398.861 457.557 358.041 518.92 312.152 562.008 243.852 603.495 217.039 619.769 187.692 628.707 155.009 630.308L137.267 631.241 130.464 636.844C112.321 651.651 90.3107 663.657 68.0332 670.994 52.6924 676.063 34.817 677.531 25.3457 674.329Z" fill="#FFFFFF" transform="matrix(1 0 0 -1 113 636)"/><path d="M143.403 560.674C141.269 560.273 138.868 559.606 138.334 559.073 137.801 558.406 140.869 553.604 145.271 548.134 149.806 542.798 155.276 533.994 157.677 528.525 162.613 517.586 164.48 516.919 168.882 524.789 175.686 536.795 173.551 546 161.812 556.138 155.276 561.607 153.675 562.141 143.403 560.674Z" fill="#FFFFFF" transform="matrix(1 0 0 -1 113 636)"/></g></svg>