<svg width="538" height="531" xmlns="http://www.w3.org/2000/svg" xmlns:xlink="http://www.w3.org/1999/xlink" overflow="hidden"><defs><clipPath id="clip0"><rect x="382" y="71" width="538" height="531"/></clipPath></defs><g clip-path="url(#clip0)" transform="translate(-382 -71)"><path d="M393.1 256C393.1 255.3 393.1 254.7 393.1 254 393.9 251 393.9 248 393.1 245 393.1 244.3 393.1 243.7 393.1 243 397.3 229.9 406.3 221.4 418.8 216.3 421.8 215.1 424.9 214.7 428.1 214.5 446.4 213.2 460.9 204.2 473.7 192 481.1 185 487.9 177.4 495.4 170.6 510.2 157.3 527.9 149.9 546.9 145.5 567.1 140.8 587.7 138.8 608.4 139.9 639.2 141.5 669.3 146.5 697.5 159.8 698.1 160.1 698.7 160.4 699.5 159.9 700.3 158 699.4 156.1 699.1 154.2 697.2 141.8 700.8 131.6 710.8 123.7 716.5 119.2 722.8 115.3 727.9 109.9 731.7 105.9 734.2 101.5 734.8 95.9 735.5 89.5 737 88.5 742.9 91.1 775.3 105.2 794.5 129.5 799.3 164.7 802.6 189 796.7 211.1 781.9 230.5 766.6 250.6 745.6 261.3 720.9 265 720.6 265 720.2 265 719.9 265 720.5 265 721.1 265 721.7 265 733.3 266.8 744.8 267.6 756.5 265.7 794.6 259.5 824.9 228.8 830.7 190.6 830.9 189.3 831.1 188 831.7 186.7 832.6 184.7 833.9 184.4 835.7 185.7 837.1 186.7 838.2 187.9 839.2 189.2 862.2 217.2 880.7 247.9 892.7 282.2 898.1 297.6 901.9 313.5 903.8 329.7 903.9 332.2 903.7 334.8 904 337.3 904.2 337.8 904.3 338.3 904.3 338.8 904.6 341.5 903.7 344.3 904.8 347 904.8 347.7 904.8 348.3 904.8 349 904 355.7 904 362.3 904.8 369 904.8 370 904.8 371 904.8 372 903.7 374.3 904.6 376.8 904.3 379.2 904.3 379.7 904.2 380.2 904 380.7 903.6 383.2 903.9 385.7 903.8 388.3 899.5 422.8 887.8 454.5 868.5 483.4 867.1 485.4 866.3 488.5 862.8 488.1 860.1 483.7 862.1 478.9 861.4 474.3 861.7 460.6 859.6 447.2 857.9 433.7 857.9 433.3 857.9 432.8 857.9 432.4 857.9 432.1 857.9 431.8 857.9 431.5 857.8 431.8 857.9 432.2 857.9 432.5 855.3 450.4 849.7 467.5 842.4 484 833 505.4 819.6 524.2 803.3 540.9 794.6 549.8 784.9 557.8 774.8 565.1 774.4 565.4 774 565.7 773.5 565.9 772.2 566.6 770.7 567.5 769.3 566.4 767.8 565.1 769 563.6 769.7 562.3 772.3 557.6 775.1 553.1 777.8 548.5 787 532.7 794 516.1 797.4 498 797.7 496.2 798.3 494.4 798.9 492.7 799.1 492.1 799.3 491.6 799.6 491 799.8 490.7 799.9 490.5 800 490.2 799.6 490.4 799.6 490.9 799.3 491.2 776.4 527.3 746.5 555.8 707.4 573.8 688.7 582.4 669 588 648.7 591 646.4 591.3 644 591.1 641.7 591.2 640.2 591.1 638.4 591.5 637.7 589.5 638.4 586.7 640.9 585.9 643.1 584.7 668.6 571.1 689.9 552.4 708.3 530.3 708.7 529.8 709.2 529.3 709.3 528.1 703.1 529.7 697.3 531.9 691.5 533.9 681.9 537.2 672.1 540 662.1 541.9 660 542.3 657.8 542.4 655.6 542.3 654 542.2 651.8 542.6 651.2 540.8 650.5 538.9 652.5 538 653.7 537 653.9 536.8 654.2 536.6 654.5 536.4 683.7 515 700.3 485.9 705.3 450.3 706.8 439.6 706.9 428.7 705 418 704.7 416.2 704.8 414.4 704.7 411.8 704.7 411.9 703.6 412.4 704.3 412.3 704.4 412.3 704.5 412.4 704.5 412.5 704.6 417.7 703 422.7 701.3 427.5 689.6 459.8 670.2 486 639.3 502.2 623.4 510.5 606 514.4 588 515.6 568.4 516.9 549.9 513.4 531.9 506.2 527.9 504.6 524 502.6 520.2 500.5 518.9 499.8 517.6 498.8 517.6 497.1 517.7 495.3 519.2 494.7 520.6 494.1 524 492.7 527.6 492.2 531.7 491.1 526.3 485.7 521.8 480.3 518 474.2 510.3 461.5 508.2 447.7 510 433.3 512.1 416.5 533.1 402.4 549.6 406.2 558.3 408.2 562.1 414.9 559.2 423.7 557.9 427.8 556.2 431.8 556.7 436.3 557.3 442.3 560.4 446.9 565.1 450.5 570.7 454.7 577 457 583.9 458.1 587.2 458.6 589.3 457.5 591.1 454.9 595.6 448.4 599 441.4 602 434.2 602.4 433.1 602.7 432 603.2 430.9 603.7 429.7 604 428 605.7 428.2 607.5 428.4 608.1 430 608.1 431.6 608.1 437.3 609.7 442.8 609.1 449.4 614.9 444.6 618.7 439.3 621.9 433.5 623.4 430.7 624.8 427.8 626.2 425 627.8 421.9 630.3 420.4 633.6 421.1 643.3 423.1 651.4 427.5 655.4 437.3 655.6 438.4 656.4 439.4 656 440.6 656.5 439.4 655.7 438.4 655.5 437.3 652.6 424.8 650.7 412.1 645.3 400.3 622.3 349.6 584.3 317.4 528.8 308 510.7 304.9 492.3 305.9 474.1 308.9 470.6 309.5 468 311.1 465.9 314 463.1 317.8 460.8 321.8 457.5 325.2 456.1 326.6 454.7 328.5 452.4 327.5 450.3 326.6 450 324.4 449.9 322.4 449.7 318.2 449.7 314.1 450 309.5 447.7 312.5 446.2 315.8 443.5 318.1 440.4 320.9 438 320.2 437.1 316.1 436.5 313.5 436.7 310.8 436.8 308.1 436.9 305.1 435.7 303.1 433 301.7 423.6 297.1 417.1 289.8 413.4 280 412.4 277.3 410.7 275.1 408.1 273.6 401 269.4 395.6 263.9 393.1 256Z" fill="#FFFFFF"/><path d="M697.1 82.9C706.5 84.4 714.7 87.9 720 96.2 724.6 103.4 724.1 106.5 717.6 111.9 715.4 113.7 713.2 115.5 710.9 117.1 698.9 126 692.9 137.7 694.6 153 689.7 146 687.6 138.5 690.1 130.2 691.1 126.9 692.5 123.7 694 120.5 699.6 108.1 697.6 96.6 687.7 87.3 685.6 85.4 684.9 84 687 81.9 688 81.9 689 81.9 690 81.9 692.2 83.4 694.8 82 697.1 82.9Z" fill="#FFFFFF"/><path d="M904.9 369C903.3 362.3 903.2 355.7 904.9 349 904.9 355.7 904.9 362.3 904.9 369Z" fill="#FFFFFF"/><path d="M393.1 245C394.7 248 394.7 251 393.1 254 393.1 251 393.1 248 393.1 245Z" fill="#FFFFFF"/><path d="M903.8 338.1C904.2 338.1 904.5 338.1 904.9 338 904.9 341 904.9 344 904.9 347 903 344.2 903.9 341.1 903.8 338.1Z" fill="#FFFFFF"/><path d="M904.9 380C904.5 380 904.2 380 903.8 380 904 377.3 902.8 374.5 904.9 372 904.9 374.7 904.9 377.3 904.9 380Z" fill="#FFFFFF"/><path d="M697.1 82.9C694.7 82.8 692.2 84 690 82.1 692.3 82.1 694.7 82.1 697 82.1 697 82.4 697.1 82.7 697.1 82.9Z" fill="#FFFFFF"/><path d="M639 591C639 591.3 639 591.6 639 591.9 637 591.9 635 591.9 633 591.9 633 591 633.2 590.2 634.2 590 635.7 590.9 637.7 589.3 639 591Z" fill="#FFFFFF"/><path d="M861.7 486.8C862.1 482.5 862.4 478.1 862.8 473.8 864.1 478.4 861.8 483.2 863.6 487.8 863.4 488.2 863.2 488.7 863 489.1 861.2 489.2 861.4 488.1 861.7 486.8Z" fill="#FFFFFF"/><path d="M639 591C637.4 590.4 635.5 591.8 634.2 590 635.4 589.6 636.7 589.2 637.9 588.8 638.9 590.6 640.9 589.2 642.1 590 641.1 590.4 640.1 590.7 639 591Z" fill="#FFFFFF"/><path d="M902.9 330C904.8 332.5 904.1 335.3 903.8 338.1 902.7 335.5 902.7 332.8 902.9 330Z" fill="#FFFFFF"/><path d="M903.8 379.9C904 382.7 904.7 385.5 902.9 388 902.7 385.2 902.7 382.5 903.8 379.9Z" fill="#FFFFFF"/><path d="M858.8 432C858.2 432 857.5 431.9 856.9 431.9 856.7 430.7 856.4 428.9 857.7 428.9 859.1 428.9 859.1 430.7 858.8 432Z" fill="#FFFFFF"/><path d="M720 264.1C720.3 264.7 720.7 265.4 721 266 719.5 266.2 718.1 266 717.2 264.5 718.1 263.8 719 263.7 720 264.1Z" fill="#FFFFFF"/><path d="M800 492.1C799.6 491.4 799.9 490.3 798.9 489.9 799.3 489.1 799.7 488.2 800.2 487.1 801.6 489.1 801.2 490.6 800 492.1Z" fill="#FFFFFF"/><path d="M655 437.9C655.3 437.9 655.6 437.9 655.9 437.9 656.7 438.3 657 439 656.7 439.9 656.6 440.1 656.2 440.3 656 440.2 655 439.8 654.8 438.9 655 437.9Z" fill="#FFFFFF"/><path d="M861.7 486.8C862.1 487.6 861.7 488.8 863 489.1 863 489.8 862.6 490.5 861.9 490.1 860.5 489.3 861 488 861.7 486.8Z" fill="#FFFFFF"/></g></svg>