<svg width="341" height="341" xmlns="http://www.w3.org/2000/svg" xmlns:xlink="http://www.w3.org/1999/xlink" overflow="hidden"><defs><clipPath id="clip0"><rect x="469" y="189" width="341" height="341"/></clipPath></defs><g clip-path="url(#clip0)" transform="translate(-469 -189)"><path d="M157.846 337.137C153.45 335.006 122.946 317.423 89.9121 297.975 38.2293 267.738 29.4379 262.011 25.9746 257.215L21.9785 251.487 21.9785 170.5 21.9785 89.5125 25.9746 83.7848C29.1715 79.3891 34.8992 75.2598 54.6133 63.8043 85.1168 45.9551 87.7809 44.8895 99.6359 45.5555 106.962 45.9551 110.159 46.8875 115.354 50.0844 123.346 54.8797 129.873 64.3371 131.871 73.6613 132.804 78.3234 133.203 106.163 132.937 159.045L132.537 237.368 128.807 240.565C124.279 244.428 120.016 244.694 115.354 240.964L111.891 238.3 111.891 159.045C111.891 73.9277 111.891 73.5281 105.097 68.7328 97.9043 63.8043 89.7789 67.0012 51.6828 90.3117L43.291 95.5066 42.8914 170.1C42.625 228.843 43.0246 245.094 44.2234 246.159 47.1539 248.557 169.434 319.688 170.633 319.688 171.699 319.688 293.846 248.557 296.777 246.159 297.975 245.094 298.375 228.31 298.375 170.5 298.375 112.69 297.975 95.9062 296.777 94.8406 293.713 92.443 171.699 21.3125 170.5 21.3125 169.834 21.3125 161.176 26.1078 151.319 31.8355 134.269 41.959 131.471 43.1578 126.277 42.7582 122.547 42.4918 118.551 37.1637 118.551 32.6348 118.551 27.1734 121.082 25.0422 139.597 13.9863 166.237-1.73164 169.834-2.53086 183.154 3.86289 187.55 5.99414 218.187 23.577 251.088 43.0246 302.771 73.2617 311.562 78.9894 315.025 83.7848L319.021 89.5125 319.021 170.5 319.021 251.487 315.025 257.215C311.562 262.011 302.771 267.605 251.088 297.975 218.187 317.423 187.55 335.006 183.154 337.137 173.031 342.066 167.836 342.066 157.846 337.137Z" fill="#FFFFFF" transform="matrix(1 0 0 -1 469 530)"/><path d="M185.286 242.296C173.83 240.298 160.243 234.97 153.983 230.175 139.863 219.386 135.201 202.202 142.661 187.683 148.655 175.695 160.377 170.234 202.735 159.977 245.76 149.454 251.754 146.39 249.623 135.201 247.358 123.213 236.968 119.217 207.797 119.217 178.759 119.35 164.239 124.545 161.043 136.134 158.512 145.857 157.579 147.456 153.583 148.921 148.255 150.653 141.595 147.855 139.73 143.06 138.265 138.931 139.863 128.941 143.06 122.68 145.857 117.219 156.514 108.161 163.307 105.23 177.293 99.2363 184.886 97.9043 208.463 97.9043 226.579 97.9043 232.706 98.4371 239.1 100.435 259.08 106.562 267.738 115.087 270.536 131.605 273.2 148.255 266.939 160.11 251.221 167.836 245.893 170.5 230.441 175.162 208.596 180.49 173.564 189.148 164.772 192.612 161.309 198.606 159.577 201.67 159.711 202.602 161.975 207.264 166.904 217.254 186.351 223.248 209.795 222.05 232.839 220.851 246.426 214.857 249.223 204.733 251.754 195.143 252.686 193.544 256.682 192.079 262.011 190.347 268.671 193.145 270.536 197.94 272.001 202.069 270.402 212.059 267.205 218.32 262.277 227.644 249.623 236.036 233.372 240.432 224.181 242.962 195.276 244.161 185.286 242.296Z" fill="#FFFFFF" transform="matrix(1 0 0 -1 469 530)"/></g></svg>