<svg width="457" height="457" xmlns="http://www.w3.org/2000/svg" xmlns:xlink="http://www.w3.org/1999/xlink" overflow="hidden"><defs><clipPath id="clip0"><rect x="-90" y="70" width="457" height="457"/></clipPath></defs><g clip-path="url(#clip0)" transform="translate(90 -70)"><path d="M215.781 333.11C176.418 331.414 143.437 325.389 113.357 314.455 67.1219 297.63 37.0866 271.924 29.098 242.38 28.027 238.408 27.9377 237.381 27.9377 228.723 27.8931 218.191 28.384 215.245 31.508 207.346 47.7976 166.02 110.501 133.708 189.896 125.675 214.174 123.22 242.826 123.22 267.104 125.675 346.499 133.708 409.202 166.02 425.492 207.346 428.571 215.156 429.107 218.235 429.107 228.5 429.107 238.765 428.571 241.844 425.492 249.654 409.202 290.936 346.186 323.426 267.104 331.325 252.778 332.753 227.786 333.646 215.781 333.11ZM207.971 306.377C207.971 307.002 224.126 307.002 224.573 306.377 224.796 306.065 224.93 306.065 224.93 306.377 224.93 306.69 226.492 306.868 228.991 306.868L233.052 306.868 232.74 305.53C232.606 304.771 232.383 303.343 232.204 302.361 232.07 301.379 231.847 300.486 231.669 300.353 231.535 300.219 231.356 299.728 231.356 299.237 231.312 298.389 230.999 296.738 230.508 294.104 230.374 293.48 230.151 292.498 230.062 291.873 229.928 291.248 229.75 290.043 229.616 289.195 229.482 288.347 229.169 287.544 228.902 287.455 228.545 287.366 228.545 287.187 228.946 286.964 229.303 286.741 229.348 286.384 229.125 286.027 228.902 285.67 228.723 285.223 228.723 284.956 228.634 283.661 227.875 279.913 227.563 279.065L227.161 278.038 235.105 277.993C239.434 277.993 245.682 277.993 248.94 278.038 253.492 278.083 254.831 277.949 254.831 277.503 254.831 277.056 254.92 277.056 255.233 277.547 255.456 277.904 255.724 277.949 255.902 277.681 256.036 277.458 256.661 277.324 257.286 277.369 257.91 277.458 258.401 277.369 258.401 277.146 258.401 276.967 258.758 276.878 259.205 277.012 261.124 277.503 270.719 273.664 273.129 271.478 273.754 270.897 274.379 270.451 274.557 270.451 274.736 270.451 275.003 270.05 275.137 269.514 275.316 269.023 275.539 268.711 275.673 268.845 275.985 269.112 278.886 264.739 279.02 263.891 279.02 263.578 279.065 263.043 279.109 262.775 279.154 262.463 279.332 262.061 279.555 261.882 280.046 261.57 280.403 253.046 279.913 253.046 279.734 253.046 279.6 252.51 279.555 251.841 279.555 251.127 279.377 249.609 279.154 248.36 278.975 247.155 278.797 245.861 278.797 245.593 278.797 245.28 278.663 245.013 278.484 245.013 278.306 245.013 278.217 244.566 278.261 244.031 278.306 243.495 277.949 241.041 277.503 238.542 277.012 236.087 276.565 233.498 276.431 232.74 276.342 232.026 276.119 230.821 275.985 230.062 275.851 229.348 275.628 227.831 275.494 226.715 275.36 225.599 275.137 224.617 274.959 224.483 274.825 224.35 274.691 223.769 274.646 223.145 274.512 220.511 273.932 216.629 273.575 216.272 273.352 216.049 273.307 215.602 273.441 215.245 273.575 214.888 273.441 214.397 273.084 214.174 272.549 213.862 272.549 213.772 273.084 213.772 273.531 213.772 273.575 213.639 273.174 213.192 272.906 212.835 272.772 212.478 272.906 212.389 272.995 212.255 272.906 211.407 272.683 210.425 272.459 209.443 272.147 207.658 272.013 206.409 271.835 205.204 271.612 204.043 271.522 203.865 271.388 203.686 271.21 202.571 271.076 201.366 270.987 200.205 270.719 198.465 270.54 197.483L270.228 195.698 256.482 195.609 242.737 195.519 242.96 196.947C243.094 197.751 243.317 198.866 243.451 199.491 243.763 200.919 244.165 203.151 244.209 203.865 244.254 204.133 244.388 204.4 244.522 204.4 244.7 204.4 244.79 204.936 244.745 205.605 244.745 206.23 245.057 208.506 245.504 210.604 245.95 212.701 246.307 214.977 246.352 215.692 246.352 216.361 246.575 216.896 246.842 216.896 247.066 216.896 247.2 217.03 247.066 217.254 246.976 217.432 247.021 218.503 247.244 219.574 247.467 220.69 247.735 222.386 247.869 223.412 248.047 224.394 248.36 225.867 248.583 226.626 248.806 227.429 248.851 228.054 248.762 228.054 248.628 228.054 248.672 228.277 248.851 228.545 249.029 228.857 249.252 229.705 249.297 230.464 249.386 231.222 249.52 232.16 249.609 232.517 249.699 232.874 250.324 236.221 250.993 239.88 251.707 243.585 252.376 246.887 252.466 247.244 253.314 249.833 252.689 255.277 251.484 255.679 250.279 256.125 249.029 256.795 249.029 257.018 249.029 257.196 247.735 257.33 246.128 257.286 244.477 257.286 243.228 257.464 243.228 257.732 243.228 258.044 243.094 258.044 242.871 257.732 242.558 257.241 232.517 257.107 232.517 257.553 232.517 257.732 231.713 257.687 230.731 257.509 229.75 257.33 228.946 257.375 228.946 257.598 228.946 257.821 228.589 257.821 228.188 257.598 227.741 257.42 226.447 257.286 225.331 257.33L223.234 257.375 222.966 255.233C222.788 253.983 222.43 253.046 222.118 253.001 221.761 253.001 221.716 252.912 222.073 252.778 222.475 252.6 222.43 251.93 221.984 250.234 221.672 248.94 221.315 247.333 221.181 246.575 221.047 245.861 220.735 244.254 220.467 243.004 220.199 241.799 219.887 240.193 219.753 239.434 219.663 238.72 219.217 236.712 218.86 234.971 218.458 233.275 218.057 231.222 218.012 230.419 217.923 229.66 217.655 228.232 217.387 227.295 217.12 226.358 216.807 225.019 216.673 224.26 216.316 222.43 216.093 221.583 216.004 221.583 215.959 221.583 215.87 221.002 215.781 220.244 215.736 219.53 215.647 218.905 215.602 218.905 215.513 218.905 215.424 218.191 215.334 217.343 215.245 216.495 214.844 214.263 214.442 212.434 214.04 210.604 213.639 208.372 213.505 207.524 213.371 206.676 213.148 205.784 213.014 205.561 212.88 205.382 212.657 204.445 212.567 203.552 212.434 202.66 212.032 200.741 211.675 199.268 211.318 197.795 211.005 196.367 211.005 196.055 210.961 195.653 207.837 195.519 197.929 195.564L184.898 195.609 185.433 197.974C185.746 199.313 185.879 200.473 185.746 200.607 185.612 200.741 185.701 200.83 185.924 200.83 186.147 200.83 186.326 201.276 186.37 201.857 186.415 203.285 186.995 206.676 187.977 211.095 188.245 212.434 188.468 213.817 188.379 214.13 188.334 214.397 188.646 214.665 189.093 214.665 189.762 214.665 189.807 214.754 189.227 215.111 188.646 215.513 188.646 215.602 189.227 216.004 189.717 216.316 189.717 216.45 189.316 216.45 189.003 216.45 188.87 216.673 189.048 216.941 189.227 217.254 189.45 218.28 189.584 219.306 189.673 220.333 189.941 221.181 190.119 221.27 190.298 221.315 190.342 221.895 190.208 222.475 190.119 223.1 190.208 223.591 190.387 223.591 190.61 223.591 190.833 224.126 190.833 224.84 190.878 225.51 191.012 226.492 191.146 227.027 191.458 228.232 192.083 232.293 191.949 232.293 191.904 232.293 192.038 232.829 192.306 233.498 192.574 234.168 193.109 236.578 193.466 238.854 193.868 241.13 194.448 243.138 194.716 243.317 195.118 243.585 195.118 243.674 194.671 243.674 194.359 243.674 194.225 243.897 194.404 244.165 194.582 244.477 194.805 245.504 194.939 246.53 195.028 247.557 195.251 248.449 195.43 248.583 195.609 248.717 195.698 249.119 195.698 249.476 195.653 249.833 195.832 250.77 196.01 251.484 196.233 252.243 196.501 253.849 196.635 255.054 196.769 256.304 197.037 257.375 197.215 257.509 197.394 257.643 197.572 258.267 197.617 258.982 197.751 261.034 197.84 261.525 198.152 261.525 198.286 261.525 198.375 262.15 198.331 262.864 198.286 263.623 198.42 264.203 198.643 264.203 198.822 264.203 198.911 264.516 198.777 264.873 198.599 265.23 198.733 265.81 199 266.167 199.268 266.479 199.357 266.836 199.223 267.015 199.09 267.149 199.223 268.443 199.536 269.871 199.848 271.299 200.116 272.683 200.205 272.906 200.25 273.174 200.518 274.557 200.83 276.03 201.142 277.503 201.455 279.02 201.544 279.377 201.901 282.01 202.258 283.706 202.481 284.286 202.615 284.643 202.794 285.58 202.883 286.294 202.972 287.053 203.329 289.061 203.731 290.757 204.757 295.399 204.891 296.024 204.891 296.871 204.891 297.318 205.114 297.764 205.338 297.898 205.561 298.076 205.65 298.389 205.516 298.612 205.293 298.969 206.275 304.637 206.9 306.601 207.123 307.181 207.167 307.181 207.524 306.601 207.792 306.244 207.971 306.154 207.971 306.377ZM165.35 276.967C166.823 276.521 168.34 276.074 168.697 276.03 171.687 275.316 176.284 273.263 176.284 272.593 176.284 272.326 176.418 272.192 176.552 272.37 176.954 272.772 180.613 270.183 182.488 268.13 184.585 265.81 186.995 262.016 186.995 260.99 186.995 260.544 187.174 260.187 187.352 260.187 187.798 260.187 189.182 255.5 189.539 252.957 189.673 251.886 189.807 248.94 189.851 246.441 189.896 242.737 189.762 241.755 189.227 241.398 188.646 241.085 188.646 241.041 189.316 240.996 189.941 240.996 189.985 240.818 189.45 239.032 189.093 237.961 188.959 236.979 189.048 236.846 189.227 236.667 189.048 235.641 188.155 231.847 187.709 230.062 186.46 226.536 185.478 224.394 184.853 223.011 184.317 221.761 184.317 221.627 184.317 221.449 183.246 219.708 181.952 217.655 179.274 213.549 176.061 209.667 175.659 210.068 175.525 210.247 175.392 210.113 175.392 209.8 175.392 209.131 174.99 208.729 171.42 205.829 169.813 204.534 168.296 203.508 167.983 203.508 167.671 203.508 167.358 203.374 167.269 203.195 167.091 202.704 163.342 200.295 163.342 200.652 163.342 200.785 163.029 200.562 162.628 200.161 162.226 199.759 161.601 199.536 161.289 199.67 160.932 199.804 160.664 199.714 160.664 199.536 160.664 198.911 155.576 197.26 151.069 196.367 147.722 195.698 144.508 195.564 131.878 195.519 123.533 195.519 116.481 195.475 116.214 195.475 115.678 195.475 115.098 193.6 114.919 191.146 114.83 190.387 114.607 189.405 114.384 188.914 114.161 188.468 114.027 187.665 114.071 187.129 114.071 186.549 114.027 186.103 113.848 186.103 113.714 186.103 113.536 185.656 113.536 185.121 113.402 182.8 112.777 180.078 112.286 179.765 111.929 179.497 111.974 179.408 112.376 179.408 112.688 179.408 112.822 179.185 112.643 178.873 112.465 178.605 112.286 177.935 112.197 177.445 111.885 175.124 111.617 173.651 111.081 171.375 110.769 170.036 110.546 168.653 110.546 168.385 110.546 168.072 110.367 167.805 110.189 167.805 109.966 167.805 109.921 167.537 110.01 167.225 110.189 166.823 109.162 166.689 105.771 166.644 103.316 166.644 101.308 166.778 101.308 167.001 101.308 167.225 101.04 167.269 100.772 167.046 100.013 166.555 92.3818 166.555 92.3818 167.046 92.3818 167.225 92.1141 167.269 91.8463 167.046 91.5339 166.867 89.7041 166.689 87.8297 166.689 84.9734 166.644 84.3486 166.778 84.3486 167.314 84.3486 168.206 85.6429 174.945 85.866 175.302 85.9553 175.481 86.1784 176.686 86.3569 178.025 86.5355 179.364 86.8479 180.881 87.0264 181.461 87.2495 181.997 87.2941 182.577 87.1603 182.711 86.9817 182.845 87.071 182.979 87.2941 182.979 87.5173 182.979 87.7404 183.648 87.7404 184.451 87.7851 185.21 87.9636 186.37 88.0975 186.995 88.276 187.62 88.5438 188.825 88.6776 189.673 88.8115 190.521 89.1686 191.369 89.4363 191.547 89.7487 191.77 89.7487 191.904 89.3471 191.904 89.0347 191.904 88.9008 192.083 89.0347 192.351 89.1686 192.574 89.3917 193.243 89.5256 193.779 89.6148 194.359 89.7934 195.296 89.9272 195.921 90.0611 196.546 90.2843 197.751 90.4182 198.599 90.5521 199.447 90.8198 200.25 90.9983 200.384 91.1322 200.518 91.3107 201.723 91.4 203.062 91.4446 204.4 91.6678 205.605 91.8463 205.739 92.0694 205.873 92.2479 206.364 92.2479 206.855 92.2926 208.105 92.6496 210.291 93.4976 214.219 93.8992 216.049 94.3455 218.369 94.4794 219.351 94.6133 220.333 94.8364 221.225 95.0149 221.359 95.1488 221.493 95.3273 222.297 95.4166 223.145 95.5505 224.93 95.6844 225.733 96.086 226.715 96.2199 227.072 96.3092 227.697 96.3092 228.054 96.3092 228.411 96.4431 229.214 96.577 229.839 96.9786 231.579 97.2464 233.052 97.5142 234.748 97.8712 237.024 98.2282 238.051 98.8084 238.408 99.1654 238.631 99.1208 238.765 98.7191 238.765 98.4067 238.765 98.2282 238.899 98.3175 239.122 98.4514 239.3 98.6745 240.237 98.8084 241.219 98.9869 242.201 99.1654 243.317 99.2993 243.674 99.3886 244.031 99.5671 244.834 99.701 245.459 99.8349 246.084 100.013 247.021 100.147 247.512 100.237 248.047 100.46 249.252 100.594 250.19 101.174 253.938 101.442 254.831 101.843 254.831 102.066 254.831 102.111 255.054 101.977 255.277 101.754 255.634 102.111 258.267 103.271 264.025 103.361 264.56 103.673 265.721 103.896 266.568 104.164 267.461 104.253 268.264 104.119 268.398 103.985 268.532 104.03 268.889 104.298 269.202 104.521 269.514 104.789 270.585 104.833 271.567 104.923 272.549 105.146 273.709 105.369 274.155 105.637 274.557 105.681 275.137 105.547 275.36 105.413 275.583 105.503 275.851 105.771 276.03 106.038 276.208 106.128 276.521 105.994 276.744 105.19 278.038 106.797 278.083 134.467 277.904 159.861 277.77 162.94 277.681 165.35 276.967ZM347.124 277.547C347.391 277.503 347.659 277.279 347.659 277.101 347.659 276.878 347.927 276.833 348.239 276.967 349.043 277.279 354.532 275.941 354.711 275.36 354.8 275.137 355.068 275.003 355.291 275.182 355.514 275.316 355.96 275.271 356.273 275.048 356.54 274.869 356.897 274.691 357.031 274.646 357.433 274.602 359.932 273.397 360.155 273.129 360.289 272.995 360.959 272.593 361.673 272.236 362.387 271.879 363.681 270.942 364.484 270.183 365.288 269.425 365.957 268.889 365.957 268.978 365.957 269.291 368.233 266.524 368.322 266.122 368.322 265.944 368.858 265.319 369.393 264.739 369.974 264.159 370.331 263.489 370.197 263.266 370.018 263.043 370.152 262.864 370.42 262.864 370.688 262.864 370.777 262.686 370.643 262.418 370.509 262.195 370.554 261.972 370.777 261.972 371.312 261.972 372.696 258.401 372.384 257.91 372.25 257.687 372.339 257.509 372.562 257.509 373.098 257.509 374.169 252.019 373.901 250.591 373.767 250.011 373.901 249.386 374.169 249.252 374.526 249.119 374.481 248.94 374.124 248.762 373.812 248.628 373.544 248.315 373.544 248.092 373.544 247.824 373.722 247.735 373.901 247.869 374.347 248.137 374.303 244.522 373.856 243.808 373.633 243.451 373.722 243.228 374.079 243.228 374.481 243.228 374.481 243.094 373.99 242.781 373.499 242.469 373.499 242.335 373.901 242.335 374.213 242.335 374.347 242.112 374.169 241.844 373.99 241.532 373.812 240.594 373.767 239.702 373.499 235.507 373.008 233.409 372.294 233.409 371.67 233.409 371.67 233.32 372.16 233.008 372.517 232.784 372.607 232.383 372.384 232.026 372.205 231.713 371.982 230.821 371.893 230.107 371.803 229.348 371.58 228.679 371.402 228.545 371.089 228.277 370.955 227.875 370.598 226.045 370.509 225.554 370.152 224.93 369.75 224.662 369.393 224.394 369.215 224.037 369.349 223.903 369.706 223.546 367.43 219.083 366.493 218.369 366.091 218.057 365.912 217.789 366.091 217.789 366.269 217.789 366.091 217.298 365.689 216.673 365.288 216.049 364.618 215.558 364.217 215.558 363.726 215.558 363.636 215.468 364.038 215.201 364.44 214.933 364.127 214.308 362.878 212.969 361.896 211.943 361.226 211.095 361.316 211.095 361.45 211.095 361.271 210.827 360.959 210.47 360.646 210.158 360.111 209.979 359.798 210.068 359.486 210.202 359.352 210.068 359.486 209.667 359.62 209.354 359.307 208.774 358.772 208.417 358.236 208.06 357.388 207.346 356.853 206.81 355.692 205.65 352.568 203.329 351.676 202.928 351.319 202.749 350.426 202.214 349.667 201.723 348.15 200.741 346.454 199.938 345.829 199.938 345.606 199.938 345.428 199.714 345.428 199.491 345.428 199.223 345.294 199.09 345.115 199.134 344.892 199.179 343.375 198.688 341.634 198.018 339.938 197.394 337.618 196.724 336.547 196.59 335.52 196.456 334.449 196.278 334.271 196.144 333.824 195.876 329.094 195.341 328.022 195.385 327.353 195.43 301.111 195.519 299.996 195.475 299.683 195.475 299.505 195.296 299.683 195.073 299.817 194.85 299.683 193.689 299.415 192.484 299.148 191.324 298.835 189.628 298.701 188.78 298.567 187.932 298.255 187.084 297.943 186.906 297.586 186.638 297.586 186.549 297.987 186.549 298.389 186.549 298.434 186.236 298.121 185.478 297.898 184.898 297.853 184.273 297.987 184.139 298.166 184.005 298.076 183.871 297.853 183.871 297.63 183.871 297.452 183.336 297.407 182.666 297.318 180.569 296.961 179.364 296.291 178.917 295.89 178.694 295.845 178.516 296.202 178.516 296.738 178.516 296.693 176.864 296.157 175.079 296.024 174.633 295.8 173.562 295.667 172.714 295.086 169.099 294.417 166.287 294.238 166.823 294.104 167.091 293.792 167.225 293.524 167.046 292.721 166.555 279.823 166.555 279.823 167.046 279.823 167.314 279.6 167.314 279.288 167.046 278.975 166.823 276.521 166.644 273.798 166.644L268.889 166.689 268.978 168.251C269.068 169.099 269.112 170.215 269.112 170.706 269.157 171.152 269.335 171.777 269.514 172.044 269.737 172.268 269.826 172.848 269.782 173.294 269.692 173.696 269.782 174.053 269.96 174.053 270.139 174.053 270.273 174.41 270.273 174.856 270.317 175.258 270.451 176.507 270.674 177.623 270.853 178.739 271.031 179.899 271.031 180.212 271.031 180.479 271.165 180.747 271.299 180.747 271.433 180.747 271.567 181.283 271.612 181.997 271.612 182.666 271.79 183.916 271.969 184.764 272.147 185.612 272.326 186.727 272.415 187.218 272.504 187.709 272.638 188.155 272.683 188.245 272.861 188.379 272.906 188.78 273.307 191.592 273.486 192.975 273.798 194.136 273.977 194.136 274.2 194.136 274.334 194.671 274.334 195.385 274.334 197.438 274.646 199.045 275.048 199.045 275.226 199.045 275.316 199.223 275.182 199.402 275.048 199.58 275.182 200.562 275.405 201.544 275.673 202.481 275.851 203.597 275.896 203.954 275.896 204.311 276.119 205.516 276.342 206.632 277.547 212.166 278.574 217.477 278.663 218.592 278.708 219.173 279.02 219.797 279.377 220.021 279.868 220.333 279.913 220.467 279.466 220.467 279.154 220.467 278.975 220.645 279.109 220.868 279.243 221.092 279.466 222.029 279.6 222.966 279.779 223.948 279.957 225.064 280.091 225.465 280.627 227.295 280.805 228.366 280.76 229.526 280.716 230.196 280.894 230.731 281.117 230.731 281.296 230.731 281.475 231.088 281.475 231.535 281.43 233.052 282.189 236.979 282.501 236.979 282.68 236.979 282.769 237.515 282.68 238.14 282.635 238.765 282.813 240.193 283.17 241.219 283.483 242.29 283.617 243.272 283.483 243.406 283.349 243.585 283.438 243.674 283.661 243.674 283.884 243.674 284.063 244.477 284.108 245.414 284.152 246.352 284.286 247.512 284.509 247.958 284.688 248.449 284.911 249.52 285 250.368 285.268 252.689 285.402 253.224 285.804 253.849 285.982 254.162 286.071 254.563 285.937 254.653 285.804 254.786 285.982 256.081 286.339 257.509 286.651 258.982 287.053 260.722 287.187 261.392 287.41 262.686 287.723 264.248 288.08 265.765 288.169 266.256 288.347 267.059 288.437 267.55 288.571 268.041 288.883 269.96 289.195 271.79 289.508 273.62 289.865 275.36 290.043 275.583 290.177 275.851 290.311 276.387 290.356 276.833 290.4 277.235 290.445 277.681 290.49 277.86 290.534 278.083 345.963 277.815 347.124 277.547Z" fill="#FFFFFF" transform="matrix(1 0 0 -1 -90 527)"/><path d="M135.717 257.955C135.672 257.42 134.913 257.286 131.789 257.286 127.996 257.286 127.862 257.241 127.906 256.304 127.951 255.724 127.862 255.277 127.683 255.277 127.549 255.277 127.371 254.34 127.282 253.18 127.237 252.019 126.925 250.904 126.612 250.725 126.211 250.457 126.211 250.368 126.612 250.368 127.014 250.368 127.058 250.056 126.701 249.163 126.434 248.449 126.3 247.914 126.344 247.914 126.389 247.914 126.255 246.932 126.077 245.682 125.854 244.477 125.764 243.183 125.809 242.915 125.854 242.603 125.541 242.335 125.095 242.29 124.604 242.29 124.515 242.156 124.872 242.023 125.452 241.799 125.63 240.461 125.139 239.97 124.961 239.836 124.782 238.72 124.693 237.515 124.604 236.31 124.336 234.837 124.113 234.213 123.89 233.588 123.756 232.963 123.89 232.829 124.024 232.74 123.89 231.669 123.577 230.464 123.31 229.259 123.042 227.518 122.953 226.626 122.863 225.733 122.685 224.617 122.551 224.171 122.283 223.278 122.06 221.895 121.614 218.369 121.301 216.093 121.346 216.093 122.462 216.182 123.087 216.272 123.622 216.093 123.622 215.825 123.622 215.513 123.756 215.513 123.979 215.781 124.336 216.316 125.407 216.361 126.211 215.87 126.478 215.647 126.746 215.692 126.746 215.915 126.746 216.361 128.978 216.316 129.781 215.825 130.093 215.647 130.316 215.692 130.316 215.959 130.316 216.406 131.164 216.361 132.012 215.87 132.28 215.647 132.548 215.647 132.548 215.87 132.548 216.049 134.422 216.272 136.698 216.316 141.206 216.361 141.652 216.45 145.892 217.834 149.864 219.083 151.828 220.154 153.925 222.163 154.952 223.1 155.844 223.814 155.978 223.68 156.112 223.546 156.201 223.769 156.201 224.126 156.201 224.528 156.514 224.93 156.871 225.108 157.228 225.242 157.495 225.51 157.495 225.688 157.317 226.447 158.12 227.607 158.834 227.652 159.236 227.652 159.325 227.786 159.057 227.875 158.7 228.009 158.968 229.08 159.771 231.088 160.441 232.784 161.155 235.016 161.333 236.132 161.512 237.203 161.735 238.408 161.78 238.809 162.048 240.237 162.538 244.343 162.583 245.236 162.628 248.672 159.682 253.805 157.138 254.608 156.603 254.742 156.201 255.099 156.201 255.322 156.201 255.545 155.8 255.724 155.353 255.724 154.862 255.724 154.327 255.947 154.193 256.17 154.059 256.438 153.345 256.616 152.675 256.616 152.006 256.616 151.292 256.75 151.113 256.929 150.98 257.107 149.685 257.286 148.302 257.33 146.829 257.375 145.669 257.687 145.446 258.044 145.133 258.491 145.044 258.491 145.044 257.955 145.044 257.42 144.241 257.286 140.715 257.286 137.279 257.286 136.297 257.42 136.029 257.955 135.761 258.535 135.717 258.535 135.717 257.955Z" fill="#FFFFFF" transform="matrix(1 0 0 -1 -90 527)"/><path d="M313.741 257.509C313.384 257.286 312.983 257.196 312.804 257.33 312.536 257.464 312.001 255.5 311.733 253.492 311.599 252.287 311.019 248.538 310.796 247.557 310.439 245.816 310.216 244.388 309.948 242.558 309.769 241.576 309.591 240.461 309.501 240.104 309.412 239.746 309.189 238.542 309.011 237.426 308.743 235.373 308.52 234.257 308.386 233.855 308.341 233.722 308.296 233.498 308.341 233.32 308.341 233.141 308.163 231.936 307.939 230.642 307.716 229.348 307.449 227.697 307.315 226.938 307.181 226.224 306.958 225.108 306.824 224.483 306.69 223.859 306.511 222.654 306.422 221.806 306.333 220.958 306.11 219.262 305.931 218.101L305.619 215.959 307.895 216.138C309.144 216.182 310.171 216.093 310.171 215.87 310.171 215.692 310.394 215.647 310.662 215.781 311.465 216.316 313.697 216.316 313.92 215.825 314.054 215.513 314.232 215.468 314.5 215.781 314.946 216.361 321.774 216.406 321.774 215.87 321.774 215.647 322.087 215.692 322.444 216.004 322.979 216.45 323.113 216.45 323.113 215.959 323.113 215.468 323.203 215.468 323.47 215.87 323.649 216.182 324.631 216.495 325.568 216.584 326.55 216.629 327.621 216.852 327.933 217.03 328.201 217.254 328.692 217.254 328.915 217.12 329.183 216.986 329.361 217.075 329.361 217.298 329.361 217.566 329.763 217.789 330.254 217.789 331.102 217.789 331.548 217.968 333.958 219.217 336.993 220.824 337.662 221.27 338.912 222.654 339.671 223.457 340.831 224.974 341.5 226.001 342.17 226.983 342.973 228.188 343.375 228.589 343.732 228.991 343.91 229.393 343.821 229.526 343.687 229.616 343.866 230.285 344.134 230.999 345.115 233.409 346.32 238.631 345.963 238.988 345.829 239.122 345.919 239.211 346.142 239.211 346.767 239.211 346.945 247.021 346.32 248.092 346.008 248.717 346.008 249.029 346.32 249.029 347.391 249.029 341.188 255.411 339.849 255.634 339.358 255.724 338.733 255.991 338.51 256.17 338.064 256.572 333.467 257.33 332.842 257.152 332.619 257.107 332.485 257.241 332.485 257.464 332.485 257.643 331.682 257.687 330.7 257.509 329.495 257.286 328.915 257.33 328.915 257.687 328.915 258 328.781 258 328.558 257.732 328.246 257.241 318.204 257.107 318.204 257.553 318.204 257.732 317.401 257.687 316.419 257.509 315.482 257.33 314.589 257.375 314.545 257.553 314.455 257.777 314.098 257.732 313.741 257.509Z" fill="#FFFFFF" transform="matrix(1 0 0 -1 -90 527)"/></g></svg>