<svg width="240" height="236" xmlns="http://www.w3.org/2000/svg" xmlns:xlink="http://www.w3.org/1999/xlink" overflow="hidden"><defs><clipPath id="clip0"><rect x="277" y="54" width="240" height="236"/></clipPath></defs><g clip-path="url(#clip0)" transform="translate(-277 -54)"><path d="M504.4 172C503.2 232.9 456.6 279.6 396.4 279.3 335.9 279 289.3 231.7 289.6 171.5 289.9 110.9 337.3 64.4 397.4 64.7 457.9 65 503.3 112.2 504.4 172ZM399.6 191.1C395.9 188.3 393.3 184.7 390.8 184.8 384.8 185.1 377.4 185.2 373.3 188.7 362.5 197.7 353.1 208.5 343.3 218.7 342.6 219.4 342 221.5 342.5 222 345.7 225.6 349.3 229 352.7 232.4 353.1 232.1 353.6 231.8 354 231.5 353.8 230.1 353.9 228.6 353.3 227.3 351.3 222.6 353.6 220.6 357.5 218.5 365.7 214.1 373.8 209.4 381.6 204.3 387.4 200.7 392.7 196.2 399.6 191.1ZM429.1 130.6C425.3 127.7 421.2 127.7 417.6 130.3 408.3 137.2 399.1 144.4 390.2 151.8 385.3 155.9 381 160.7 376.6 165.1 384 174.9 384 174.9 391.7 167.4 404.1 155.2 416.4 143.1 429.1 130.6ZM392.1 180.4C403.3 170.7 414.3 161.1 425.4 151.5 428.2 149.1 430.9 146.7 433.6 144.3 436.4 141.7 437.6 138.7 434.7 135.6 431.7 132.4 428.5 133.3 425.6 136.2 425.2 136.6 424.9 136.9 424.5 137.2 413.2 148.4 401.8 159.6 390.5 170.9 385.7 175.7 385.7 175.8 392.1 180.4ZM456.4 108.5C449 101.8 439.4 102.4 433.6 108.6 427.5 115 427.6 125.3 433.7 131.6 439 137.1 447.3 138.3 452 133.9 448.5 130.2 445 126.6 440.3 121.6 445.7 117.1 450.9 112.9 456.4 108.5ZM436.7 146.2C434.7 146.7 434.1 146.6 433.8 146.9 421.1 158 408.5 169 395.8 180.1 393.3 182.2 394.6 184 396.4 185.4 398.4 186.9 399.9 191.2 403.1 187.7 413.2 176.7 423.1 165.5 432.9 154.2 434.5 152.3 435.1 149.5 436.7 146.2ZM456.7 108.7C452.8 112.9 448.9 116.8 445.6 121.1 445 121.9 446 125.3 447.3 126.2 450.2 128.3 451.1 133.7 456.4 132.4 456.7 132.3 456.9 132 457.2 131.8 463.5 126.5 463.9 116.2 456.7 108.7ZM331.2 230.7C331.4 231.1 331.6 231.6 331.8 232 337.5 232.4 343.2 232.9 348.8 233.3 349 232.8 349.3 232.2 349.5 231.7 346.5 229 343.6 226.2 340.6 223.6 340.2 223.2 338.8 223.3 338.4 223.7 335.9 225.9 333.6 228.3 331.2 230.7ZM381.1 175.2C381.4 174.5 381.6 173.8 381.9 173.1 379.3 171.4 375.6 167.6 374.2 168.3 370.6 170.2 368 174 365 177 365.3 177.4 365.6 177.8 365.9 178.3 371 177.3 376.1 176.2 381.1 175.2ZM389.1 182.8C386.5 175.8 382.5 177.3 380 183.5 383.1 183.2 385.8 183 389.1 182.8Z" fill="#FFFFFF"/></g></svg>