<svg width="661" height="683" xmlns="http://www.w3.org/2000/svg" xmlns:xlink="http://www.w3.org/1999/xlink" overflow="hidden"><defs><clipPath id="clip0"><rect x="309" y="18" width="661" height="683"/></clipPath></defs><g clip-path="url(#clip0)" transform="translate(-309 -18)"><path d="M456.437 680.99C439.912 679.791 421.787 676.992 405.396 672.861 395.8 670.462 393.268 670.329 385.406 671.661 370.347 674.06 335.031 674.86 320.772 673.127 302.914 670.862 285.723 666.064 271.73 659.268L259.869 653.67 252.939 656.069C243.344 659.401 216.557 665.798 202.165 668.33 102.215 685.388 30.9177 650.339 8.52903 573.044 0.666331 545.991-1.86573 508.81 1.86573 478.425 8.39577 427.251 28.2524 347.158 47.9758 293.052 75.1621 218.29 105.68 179.643 141.529 174.579 155.388 172.58 170.447 176.045 182.042 183.907 185.373 186.04 188.438 187.905 188.838 187.905 189.238 187.905 191.637 186.04 194.302 183.774 201.632 177.244 216.824 170.714 231.35 167.649 253.339 163.251 284.656 165.383 301.315 172.446 303.18 173.246 303.58 170.847 304.38 150.991 306.246 104.614 308.911 85.0238 316.241 63.3014 328.501 27.1863 345.426 9.19536 373.145 2.53206 385.805-0.399798 406.328 0.533065 423.92 5.06411 458.702 13.9929 477.226 25.7204 492.285 48.5089 509.476 74.2292 518.005 107.013 521.204 159.12 522.003 172.446 522.803 185.107 523.203 187.372L523.736 191.503 543.459 192.303C584.639 194.035 617.422 205.896 641.676 228.152 661.533 246.409 666.197 265.999 654.47 283.057 645.408 296.117 629.682 299.582 602.496 294.651 587.437 291.853 577.042 291.053 577.042 292.652 577.042 293.052 580.507 299.582 584.639 306.912 615.956 362.75 640.744 429.917 652.471 491.086 655.669 507.744 656.069 512.941 656.202 539.062 656.336 571.312 655.003 579.574 647.673 594.5 637.812 614.09 611.958 638.745 584.372 654.87 550.656 674.593 503.08 684.188 456.437 680.99ZM520.671 658.468C556.653 650.472 586.504 634.48 610.359 610.492 624.219 596.499 629.549 588.503 633.414 576.376 637.678 562.916 637.545 524.002 633.281 500.015 621.687 435.114 592.235 358.886 555.053 297.317 545.991 282.524 543.859 277.86 545.192 277.06 552.521 272.263 579.841 271.33 599.698 275.195 626.484 280.259 635.28 279.059 639.144 269.731 641.01 265.2 641.01 264.267 638.878 258.67 632.081 240.812 598.631 220.822 565.848 214.958 551.855 212.559 521.47 212.026 514.141 214.159 511.342 214.958 509.077 215.491 509.077 215.358 509.077 215.225 506.678 195.635 503.746 171.913 494.018 94.0859 491.486 81.6921 482.157 63.7012 471.895 43.8446 452.972 30.5179 424.852 23.3216 380.208 12.1272 351.423 23.3216 333.832 59.0369 323.703 79.6931 321.305 97.151 320.239 161.519 319.839 186.306 319.306 206.563 319.039 206.563 318.639 206.563 315.041 204.297 310.777 201.365 300.782 194.569 296.917 192.703 285.989 189.371 262.268 182.042 228.418 185.64 210.027 197.367 197.767 205.097 195.901 217.757 205.63 226.019 211.493 230.95 216.424 232.816 233.616 236.681 254.672 241.345 260.669 244.41 269.731 255.338 276.794 263.867 277.194 264.533 274.262 264.933 265.066 265.866 254.272 268.531 247.075 271.463L238.813 274.661 233.882 269.597C231.35 266.799 220.022 254.005 208.828 241.212 182.708 211.094 175.112 203.631 166.449 198.966 160.319 195.901 157.654 195.235 148.592 195.235 139.396 195.235 136.864 195.768 130.601 199.1 95.2853 217.624 59.3034 297.717 32.6502 417.789 22.7885 462.3 19.7234 483.756 19.5901 509.077 19.5901 532.931 21.056 545.725 25.9869 564.782 38.2474 611.425 69.6982 640.744 118.74 651.272 134.199 654.47 172.047 654.47 193.236 651.272 208.828 648.74 242.678 640.61 255.738 636.079L262.801 633.547 277.06 640.61C285.323 644.875 296.65 649.273 304.513 651.272 316.374 654.337 320.505 654.737 341.828 654.87 360.085 655.003 369.014 654.337 379.409 652.471L392.869 649.939 405.396 653.404C412.192 655.403 423.52 657.802 430.45 658.868 437.379 660.067 444.576 661.267 446.442 661.533 448.307 661.8 462.967 661.933 479.092 661.666 502.68 661.4 510.809 660.734 520.671 658.468Z" fill="#FFFFFF" transform="matrix(1 0 0 -1 309 700.661)"/><path d="M455.77 642.876C438.446 640.744 428.984 639.278 428.451 638.345 428.184 637.812 430.983 635.946 434.847 634.214 456.037 624.485 488.021 597.832 505.878 575.043 521.47 554.92 535.863 529.067 542.26 509.21 545.858 498.016 545.991 478.692 542.393 455.104 539.328 434.314 539.062 412.992 541.727 390.47 544.259 368.614 544.259 345.026 541.594 332.099 540.394 326.502 537.196 316.907 534.397 310.91 530.399 302.381 529.733 299.716 530.932 298.649 534.664 295.451 567.98 358.886 584.105 399.798 605.561 454.038 617.155 504.279 617.422 543.06 617.689 572.112 614.357 579.841 593.434 599.831 571.179 621.02 543.726 634.747 512.408 640.344 500.814 642.476 465.232 644.075 455.77 642.876Z" fill="#FFFFFF" transform="matrix(1 0 0 -1 309 700.661)"/><path d="M314.508 633.547C264.267 622.886 230.284 582.773 217.224 518.672 214.692 505.745 211.893 486.155 212.559 485.355 212.826 485.089 216.024 486.421 219.756 488.42 230.817 493.884 249.074 499.481 261.202 500.947 284.656 503.879 303.714 497.083 313.842 482.423 323.837 468.031 329.567 437.913 329.7 400.465 329.834 366.748 327.168 353.955 313.708 323.037 307.178 308.111 298.516 284.656 298.516 282.124 298.516 281.192 300.782 280.525 304.38 280.392 311.843 280.259 323.837 274.528 328.634 268.798 330.633 266.399 333.698 261.468 335.431 257.603L338.629 250.674 339.029 190.97C339.562 131.534 341.028 103.415 344.493 86.3565 348.358 67.2994 360.085 49.9748 373.812 42.9117 392.602 33.1833 435.247 41.4458 454.704 58.5038 465.499 68.099 470.963 81.5589 475.627 109.945 480.957 141.795 491.752 231.883 491.752 243.477 491.752 259.069 500.148 273.062 512.542 278.126 515.74 279.459 518.405 280.792 518.405 281.192 518.405 281.591 514.807 286.655 510.276 292.519 505.878 298.383 499.748 308.245 496.683 314.508 493.618 320.772 485.755 335.431 479.358 347.292 458.702 385.272 448.574 411.259 444.176 436.846 436.713 481.357 461.9 506.811 511.742 504.812L523.336 504.412 518.938 514.94C505.345 547.057 477.892 581.84 450.839 601.43 428.451 617.422 400.998 629.016 374.611 633.547 359.019 636.213 326.769 636.213 314.508 633.547Z" fill="#FFFFFF" transform="matrix(1 0 0 -1 309 700.661)"/><path d="M129.934 633.414C110.744 630.749 88.4887 621.553 75.4286 611.025 46.7764 587.57 32.9167 535.33 40.7794 479.492 43.3115 460.834 51.9738 418.589 58.104 394.201 87.6891 276.527 125.004 206.696 154.056 214.692 160.319 216.557 165.65 221.488 183.907 242.544 192.436 252.406 204.697 266.266 210.96 273.196L222.288 285.856 215.891 292.652C194.035 315.707 185.506 345.826 190.837 381.141 191.637 387.005 192.436 413.125 192.57 444.443 192.703 493.218 192.969 498.948 195.635 512.408 204.697 558.119 217.89 587.97 240.279 612.758 243.077 615.956 245.21 618.755 244.943 619.154 243.344 620.754 204.83 629.549 189.904 631.815 173.779 634.214 141.795 635.013 129.934 633.414Z" fill="#FFFFFF" transform="matrix(1 0 0 -1 309 700.661)"/><path d="M486.421 482.956C476.56 480.291 469.763 475.627 466.165 468.697 461.634 460.168 461.9 440.844 466.831 424.053 472.029 406.595 482.024 383.94 495.483 359.152 501.88 347.425 509.21 333.432 511.875 327.968L516.54 318.106 518.805 323.97C524.536 339.162 525.468 361.018 521.87 390.47 519.072 412.592 519.205 434.048 522.403 455.104 525.602 476.693 525.735 483.223 522.936 484.289 518.938 485.888 493.751 484.955 486.421 482.956ZM504.146 475.893C505.878 475.227 507.744 473.628 508.277 472.428 509.476 469.23 505.612 462.7 500.681 459.768 489.753 453.105 472.029 460.968 476.96 470.296 479.758 475.36 496.416 478.825 504.146 475.893Z" fill="#FFFFFF" transform="matrix(1 0 0 -1 309 700.661)"/><path d="M259.602 481.091C246.009 478.692 225.22 470.296 215.358 463.366L211.627 460.701 212.426 437.246C212.959 423.653 212.693 406.995 211.893 397.799 208.961 363.95 208.828 350.357 211.227 341.295 218.823 312.109 242.811 288.921 269.198 285.323 273.995 284.656 277.86 284.257 277.993 284.39 277.993 284.39 280.392 291.186 283.191 299.182 285.989 307.312 291.453 321.305 295.451 330.5 305.979 354.621 309.311 368.348 310.11 391.269 311.176 420.721 305.846 457.503 298.783 468.964 292.386 479.492 276.927 484.289 259.602 481.091ZM285.323 470.429C287.855 469.63 291.453 467.631 293.185 465.765 295.851 462.967 296.117 461.767 295.051 458.835 294.385 456.836 291.72 453.771 289.188 452.039 285.323 449.373 283.324 448.974 277.327 449.507 270.93 449.906 269.464 450.706 264.933 455.504 256.004 465.232 259.336 471.762 273.196 471.762 277.194 471.762 282.657 471.096 285.323 470.429Z" fill="#FFFFFF" transform="matrix(1 0 0 -1 309 700.661)"/><path d="M521.737 260.669C519.605 259.736 516.673 257.737 515.34 256.271 512.941 253.472 509.743 239.479 510.942 236.547 513.208 230.417 549.323 230.417 573.711 236.547 586.504 239.879 614.89 254.538 612.624 256.804 612.225 257.07 605.695 256.404 597.965 255.338 572.112 251.473 547.191 253.339 535.996 259.869 530.932 262.934 527.334 263.067 521.737 260.669Z" fill="#FFFFFF" transform="matrix(1 0 0 -1 309 700.661)"/><path d="M299.049 259.336C297.45 258.27 291.853 251.873 286.522 245.21 281.058 238.546 273.995 231.35 270.664 229.084 264.267 224.953 250.407 220.289 232.949 216.557 227.219 215.358 222.288 213.892 221.888 213.226 221.488 212.559 225.486 210.561 230.817 208.961 238.946 206.429 243.344 205.896 258.536 205.896 273.995 206.029 277.593 206.429 284.123 209.095 295.184 213.359 306.912 221.755 313.175 229.484 320.105 238.147 320.772 241.345 317.706 248.941 313.708 258.27 304.78 263.334 299.049 259.336Z" fill="#FFFFFF" transform="matrix(1 0 0 -1 309 700.661)"/></g></svg>