<svg width="497" height="499" xmlns="http://www.w3.org/2000/svg" xmlns:xlink="http://www.w3.org/1999/xlink" overflow="hidden"><defs><clipPath id="clip0"><rect x="11" y="53" width="497" height="499"/></clipPath></defs><g clip-path="url(#clip0)" transform="translate(-11 -53)"><path d="M139.773 453.562C132.311 451.297 121.252 441.837 116.455 433.576 111.525 425.048 108.194 412.923 106.462 397.067 104.996 382.81 106.329 364.289 110.859 339.372 111.925 333.376 112.058 329.646 111.125 328.18 110.459 327.114 104.197 324.183 97.2681 321.651 68.4874 311.391 46.7686 298.6 32.5115 283.41 21.852 272.217 17.0552 262.357 16.2558 250.898 15.7228 243.437 16.2558 241.438 20.5196 232.377 30.9126 210.392 57.5614 190.539 95.5359 176.681 113.79 169.886 113.391 170.419 110.06 153.63 103.264 119.12 104.597 90.0729 113.79 69.8198 117.921 60.8925 127.648 50.233 135.243 46.6354 158.027 35.5761 198.8 50.0997 236.508 82.478 241.971 87.2748 247.034 90.6059 248.9 90.6059 250.765 90.6059 255.962 87.1415 262.224 81.8118 276.748 69.4201 296.601 56.4954 310.325 50.6327 356.294 30.7794 384.542 49.167 390.272 102.731 391.87 116.722 390.671 133.91 386.94 156.162 385.208 166.155 384.942 169.486 386.141 170.952 387.074 172.018 391.87 174.15 396.801 175.882 421.85 184.143 449.965 200.799 463.689 215.455 485.541 238.64 485.674 260.092 464.222 282.477 448.766 298.6 429.579 310.192 401.064 320.452 393.336 323.25 386.274 326.314 385.208 327.247 383.609 328.713 383.609 330.578 385.608 340.039 391.071 367.887 391.338 394.402 386.274 414.788 381.744 433.443 373.616 445.168 360.825 451.564 354.029 455.028 351.098 455.694 343.236 455.694 320.585 455.694 293.67 442.636 263.29 417.187 256.228 411.324 249.433 406.394 248.367 406.394 247.168 406.394 242.771 409.192 238.773 412.79 214.923 433.309 189.739 447.966 170.019 453.029 157.761 456.094 148.434 456.361 139.773 453.562ZM176.948 430.378C190.672 424.782 204.796 416.121 219.186 404.529 234.376 392.27 234.776 390.405 225.049 379.079 221.185 374.682 213.457 365.088 207.727 357.627 201.998 350.298 196.535 343.636 195.602 342.837 194.669 342.037 186.142 340.572 176.548 339.372 167.088 338.173 153.897 336.175 147.501 334.842 139.107 333.243 135.109 332.977 133.51 334.043 129.247 336.574 126.315 355.495 126.182 381.744 125.916 407.327 127.381 416.121 133.51 426.247 140.039 436.64 156.961 438.239 176.948 430.378ZM354.429 433.309C360.292 430.511 365.488 421.051 368.42 408.792 372.15 392.403 370.152 348.3 365.088 336.175 363.623 332.843 358.426 332.177 350.831 334.309 348.566 334.975 337.374 336.841 326.181 338.306 314.989 339.905 304.462 341.504 302.997 341.771 301.398 342.171 296.734 347.101 292.071 353.363 287.674 359.492 279.812 369.352 274.616 375.481 261.824 390.138 261.958 391.737 276.481 403.862 294.069 418.653 318.187 432.377 330.712 434.775 338.573 436.241 349.899 435.575 354.429 433.309ZM261.291 362.424C266.888 355.495 271.151 349.099 271.151 347.367 271.151 344.436 270.752 344.436 250.499 344.036 225.182 343.636 223.45 343.903 225.182 348.566 225.982 350.432 230.779 356.961 235.975 363.223 242.637 371.084 246.368 374.416 248.367 374.416 250.499 374.416 254.229 370.951 261.291 362.424ZM291.138 321.118C298.6 314.989 331.777 256.361 331.777 249.299 331.777 245.968 328.713 239.04 321.651 225.982 309.792 204.13 295.668 181.345 291.938 178.014 289.539 175.882 285.808 175.482 259.559 174.816 221.052 174.017 207.194 175.083 203.33 179.213 195.202 188.14 163.89 243.57 163.89 249.166 163.89 254.762 199.466 317.787 204.396 320.718 207.861 322.983 219.719 323.516 253.297 323.383 282.344 323.117 289.273 322.717 291.138 321.118ZM177.614 316.188C175.616 310.592 155.629 277.281 153.897 276.614 151.232 275.682 149.766 278.08 143.903 293.67 138.174 308.726 138.041 312.59 142.971 313.79 152.698 316.188 165.489 318.187 171.485 318.32 177.614 318.453 178.414 318.187 177.614 316.188ZM340.438 316.321C355.228 313.79 357.094 312.857 357.094 308.327 357.094 303.929 346.701 277.547 344.569 276.748 341.771 275.682 340.572 277.147 333.776 289.139 330.312 295.402 325.915 302.864 324.049 305.662 322.317 308.593 320.318 312.457 319.786 314.456 318.853 317.654 319.119 317.92 322.983 318.187 325.249 318.453 333.11 317.52 340.438 316.321ZM119.52 304.862C120.186 303.929 123.384 295.935 126.449 287.141 129.646 278.347 134.177 266.754 136.708 261.291 141.772 250.099 142.038 248.1 139.107 242.238 136.442 237.041 124.983 208.26 122.051 198.933 120.586 194.669 118.854 191.738 117.255 191.205 115.922 190.805 110.06 192.005 104.33 194.003 61.8252 208.66 32.245 233.577 35.1764 252.364 37.8413 268.886 60.3595 286.741 96.6019 300.732 111.925 306.594 117.388 307.66 119.52 304.862ZM399.599 300.465C437.973 285.942 461.024 266.621 461.024 249.033 461.024 235.709 444.235 218.92 417.054 205.196 404.529 198.933 383.609 191.605 380.412 192.404 378.146 192.937 376.414 196.268 372.417 206.795 369.619 214.39 364.822 226.382 361.624 233.71 358.426 240.905 355.761 248.234 355.761 250.099 355.761 251.831 357.227 256.095 358.959 259.559 360.691 263.024 365.222 274.216 369.086 284.476 372.95 294.736 376.681 303.929 377.48 304.862 379.346 307.261 384.809 306.195 399.599 300.465ZM160.026 213.324C162.424 209.193 167.221 200.932 170.819 195.069 177.481 183.743 178.414 180.279 175.349 179.08 172.951 178.147 140.972 183.61 139.373 185.209 138.574 186.009 138.707 188.54 139.773 192.138 142.171 200.532 149.233 218.92 150.832 220.785 152.964 223.45 155.629 221.318 160.026 213.324ZM348.433 216.122C350.032 213.057 352.963 205.329 355.095 199.066 358.959 188.14 358.959 187.607 356.694 185.875 353.896 183.877 340.971 181.345 327.514 180.279L318.586 179.48 319.652 183.477C320.318 185.609 322.317 189.739 324.049 192.671 325.915 195.469 330.312 202.931 333.776 209.193 342.57 224.783 343.903 225.449 348.433 216.122ZM368.02 153.231C371.351 137.108 372.417 111.125 370.551 97.2681 368.686 84.0769 362.557 70.2196 356.694 66.089 354.296 64.2236 350.298 63.2909 344.302 62.8912 325.115 61.692 294.069 77.1483 270.219 100.066 262.624 107.261 262.624 107.661 272.884 119.786 276.881 124.45 284.609 134.443 290.072 141.772 295.535 149.233 300.998 155.629 302.331 156.162 303.53 156.562 312.457 158.027 322.317 159.227 332.044 160.426 343.769 162.291 348.3 163.224 352.697 164.29 358.56 164.956 361.091 164.823L365.755 164.556 368.02 153.231ZM165.889 159.893C175.482 158.427 185.609 157.228 188.673 157.228 194.803 157.228 195.735 156.428 209.726 138.307 214.656 131.912 221.851 122.851 225.849 118.321 229.846 113.657 233.177 108.727 233.177 107.128 233.177 105.263 230.512 102.065 226.115 98.334 192.404 69.4201 157.494 56.0957 140.572 65.6893 133.777 69.5534 128.58 79.6799 126.449 93.2708 123.917 109.527 126.715 150.033 131.245 162.424 132.045 164.556 139.107 164.023 165.889 159.893ZM271.018 153.764C274.749 152.298 268.886 142.571 255.962 128.98 249.033 121.518 246.901 122.185 235.975 135.109 225.849 147.101 222.784 152.564 225.582 153.764 227.847 154.696 268.487 154.696 271.018 153.764Z" fill="#FFFFFF" transform="matrix(1 0 0 -1 11 551.666)"/><path d="M240.772 290.472C220.918 285.542 207.194 268.487 207.328 249.166 207.461 238.107 211.192 229.313 219.453 220.918 227.98 212.258 236.641 208.66 248.5 208.66 278.08 208.66 298.067 241.038 284.742 267.287 276.348 283.81 256.495 294.203 240.772 290.472Z" fill="#FFFFFF" transform="matrix(1 0 0 -1 11 551.666)"/></g></svg>