<svg width="371" height="371" xmlns="http://www.w3.org/2000/svg" xmlns:xlink="http://www.w3.org/1999/xlink" overflow="hidden"><defs><clipPath id="clip0"><rect x="294" y="14" width="371" height="371"/></clipPath></defs><g clip-path="url(#clip0)" transform="translate(-294 -14)"><path d="M662.056 48.5972C662.056 148.708 662.056 249.556 662.056 349.667 662.056 350.403 661.319 351.139 662.056 351.875 662.056 352.611 662.056 353.347 662.056 354.083 659.847 363.653 655.431 371.014 648.069 376.167 642.917 379.847 636.292 382.056 629.667 382.792 628.931 382.792 627.458 382.792 626.722 382.792 527.347 383.528 428.708 383.528 330.806 383.528 330.069 383.528 328.597 383.528 327.861 383.528 327.125 383.528 326.389 383.528 325.653 383.528 310.194 380.583 300.625 371.75 296.208 357.028 295.472 354.819 295.472 352.611 294.736 350.403 294.736 349.667 294.736 348.194 294.736 347.458 294.736 248.819 294.736 150.917 294.736 52.2778 294.736 51.5417 294.736 50.0694 294.736 49.3333 294.736 47.8611 295.472 45.6528 295.472 44.1806 299.153 29.4583 310.194 18.4167 325.653 16.2083 326.389 16.2083 327.125 16.2083 327.861 16.2083 427.972 16.2083 528.083 16.2083 628.194 16.2083 628.931 16.2083 629.667 16.9444 630.403 16.2083 634.083 16.9444 637.028 17.6806 640.708 19.1528 652.486 25.0417 659.847 34.6111 661.319 47.8611 662.056 47.8611 662.056 47.8611 662.056 48.5972ZM624.514 226C624.514 226 624.514 225.264 624.514 225.264 624.514 214.958 624.514 204.653 624.514 194.347 624.514 193.611 623.778 192.875 623.042 192.875 620.097 191.403 616.417 190.667 612.736 189.931 605.375 188.458 598.014 187.722 590.653 186.986 580.347 186.25 570.042 186.986 560.472 189.194 552.375 190.667 545.014 193.611 538.389 198.764 531.028 203.917 525.139 211.278 522.194 220.111 519.25 228.944 519.25 237.778 521.458 247.347 523.667 256.181 528.819 263.542 536.181 269.431 542.069 274.583 548.694 278.264 555.319 281.208 560.472 283.417 565.625 285.625 570.042 287.833 574.458 289.306 578.139 291.514 581.819 294.458 584.764 295.931 586.972 298.139 589.181 301.083 594.333 307.708 592.861 316.542 586.236 320.958 584.028 322.431 581.083 323.903 578.875 324.639 571.514 326.847 563.417 326.847 555.319 325.375 542.806 323.903 531.764 318.75 522.194 311.389 521.458 311.389 521.458 310.653 520.722 310.653 520.722 311.389 520.722 312.125 520.722 312.125 520.722 316.542 520.722 320.958 520.722 325.375 520.722 332 520.722 337.889 520.722 344.514 520.722 345.986 521.458 346.722 522.194 346.722 524.403 347.458 525.875 348.194 528.083 348.931 536.181 351.875 544.278 353.347 552.375 354.083 564.889 355.556 577.403 354.819 589.917 352.611 598.014 351.139 605.375 348.194 612.736 343.778 621.569 337.889 626.722 329.792 629.667 319.486 631.139 313.597 631.139 308.444 631.139 302.556 630.403 293.722 628.194 286.361 622.306 279.736 619.361 276.056 615.681 272.375 611.264 269.431 605.375 265.014 599.486 262.069 592.861 259.125 587.708 256.917 582.556 254.708 577.403 252.5 573.722 250.292 570.042 248.819 566.361 245.875 564.153 244.403 562.681 242.931 561.208 240.722 557.528 235.569 558.264 228.944 562.681 224.528 564.153 223.056 566.361 221.583 568.569 220.111 572.986 217.903 577.403 217.167 581.819 217.167 586.972 217.167 591.389 217.167 596.542 217.903 606.111 219.375 614.944 222.319 623.042 227.472 623.778 225.264 623.778 226 624.514 226ZM461.833 285.625C461.833 264.278 461.833 243.667 461.833 222.319 461.833 221.583 461.833 221.583 461.833 220.847 461.833 220.111 461.833 220.111 462.569 220.111 463.306 220.111 463.306 220.111 464.042 220.111 478.028 220.111 491.278 220.111 505.264 220.111 506 220.111 506 220.111 506.736 220.111 507.472 220.111 507.472 220.111 507.472 219.375 507.472 218.639 507.472 218.639 507.472 217.903 507.472 209.806 507.472 200.972 507.472 192.875 507.472 189.931 507.472 190.667 505.264 190.667 464.042 190.667 422.819 190.667 380.861 190.667 380.861 190.667 380.125 190.667 380.125 190.667 378.653 190.667 378.653 190.667 378.653 192.139 378.653 200.972 378.653 209.806 378.653 218.639 378.653 220.111 378.653 220.111 380.125 220.111 380.861 220.111 380.861 220.111 381.597 220.111 394.847 220.111 408.833 220.111 422.083 220.111 425.028 220.111 424.292 220.111 424.292 222.319 424.292 264.278 424.292 306.236 424.292 348.194 424.292 348.931 424.292 348.931 424.292 349.667 424.292 350.403 424.292 351.139 425.764 350.403 425.764 350.403 426.5 350.403 426.5 350.403 437.542 350.403 447.847 350.403 458.889 350.403 461.097 350.403 461.097 350.403 461.097 348.194 461.833 327.583 461.833 306.236 461.833 285.625Z" fill="#FFFFFF"/><path d="M294 48.5972C294 48.5972 294 48.5972 294 48.5972 294.736 49.3333 294.736 50.8056 294.736 51.5417 294.736 150.181 294.736 248.083 294.736 346.722 294.736 347.458 294.736 348.931 294.736 349.667 294.736 349.667 294.736 349.667 294 349.667 294 249.556 294 149.444 294 48.5972Z" fill="#FFFFFF"/><path d="M325.653 15.4722C325.653 15.4722 325.653 15.4722 325.653 15.4722 326.389 15.4722 327.125 15.4722 327.861 15.4722 327.125 15.4722 326.389 16.2083 325.653 15.4722Z" fill="#FFFFFF"/><path d="M631.139 15.4722C631.139 15.4722 631.139 15.4722 631.139 15.4722 630.403 16.2083 629.667 15.4722 628.931 15.4722 629.667 15.4722 630.403 15.4722 631.139 15.4722Z" fill="#FFFFFF"/><path d="M662.056 351.875 662.056 351.875 662.056 351.875C661.319 351.139 662.056 350.403 662.056 349.667 662.056 350.403 662.056 351.139 662.056 351.875Z" fill="#FFFFFF"/></g></svg>