<svg width="250" height="222" xmlns="http://www.w3.org/2000/svg" xmlns:xlink="http://www.w3.org/1999/xlink" overflow="hidden"><defs><clipPath id="clip0"><rect x="920" y="306" width="250" height="222"/></clipPath></defs><g clip-path="url(#clip0)" transform="translate(-920 -306)"><path d="M982 312C982 312.5 982.1 313 982.1 313.5 982 317.3 983.1 321.7 981.5 324.8 979.8 328.2 974.9 326 971.5 326.9 963.9 328.9 960.2 333.1 960.1 341.1 960 360.1 960 379.1 960 398.1 960 407.5 957.3 415.2 947.5 418.5 947.6 419.1 947.6 419.6 947.7 419.6 957.2 423.4 960 431 960 440.4 960 458.7 960.1 477 960.1 495.4 960.1 505.8 964.4 511.2 974.8 511.6 983.3 512 982 513.8 982.1 520 982.1 522 982 524 982 526 978 526 974 526 970 526 969.2 525.7 968.5 525.3 967.7 525.1 950 520.6 944.3 513 943.9 494.7 943.5 476.5 942.8 458.2 942.1 440 941.8 431.7 938.5 428.5 930.1 427.9 930.1 421.9 930.1 415.9 930.1 409.9 938.3 409.7 941.6 406.6 942.1 398.6 942.4 394.3 942.8 390 942.9 385.7 943.3 370.1 943.7 354.5 944 338.9 944.2 328 949.3 320.5 959.2 315.8 963 314 967.2 313.7 971 312 974.7 312 978.3 312 982 312Z" fill="#FFFFFF"/><path d="M1114 526C1114 525.2 1113.9 524.3 1113.9 523.5 1114 520.2 1113.3 516.5 1114.5 513.6 1116.1 509.9 1120.5 512.1 1123.6 511.3 1132.3 509.2 1135.9 505 1135.9 495.8 1136 477.1 1136 458.5 1136 439.8 1136 430.5 1138.7 422.7 1148.5 419.4 1148.4 417.5 1147 417.5 1146 417.1 1140.5 414.4 1137.3 410 1136.5 403.9 1135.3 394.9 1135.8 385.9 1135.7 377 1135.6 365.5 1135.7 354 1135.7 342.5 1135.7 332.2 1131.6 327.5 1121.5 326.2 1113.7 325.2 1113.7 325.2 1113.7 317.4 1113.7 315.6 1113.8 313.7 1113.8 311.9 1117.8 311.9 1121.8 311.9 1125.8 311.9 1126.6 312.2 1127.3 312.6 1128.1 312.8 1145.6 317.3 1151.5 325.1 1151.9 343.2 1152.3 361.4 1153 379.7 1153.7 397.9 1154 406.2 1157.3 409.4 1165.7 410 1165.7 416 1165.7 422 1165.7 428 1157.5 428.2 1154.2 431.3 1153.7 439.3 1153.4 443.8 1153 448.2 1152.9 452.7 1152.5 468.1 1152.1 483.6 1151.8 499 1151.5 509.9 1146.4 517.5 1136.6 522.2 1132.8 524 1128.6 524.3 1124.8 526 1121.3 526 1117.7 526 1114 526Z" fill="#FFFFFF"/><path d="M1063.2 377C1063.2 386.3 1063.3 395.6 1063.2 404.9 1063.1 410.5 1061.7 412 1056.1 412.1 1041.1 412.2 1026.2 412.2 1011.2 412.1 1005.5 412.1 1004 410.6 1003.9 405 1003.8 386.2 1003.8 367.4 1003.9 348.6 1003.9 343.3 1005.8 341.1 1011 341.1 1026 340.9 1040.9 340.9 1055.9 341.1 1061.3 341.2 1063.1 343.4 1063.2 349 1063.2 358.4 1063.2 367.7 1063.2 377ZM1006.9 376.6C1006.9 385.6 1007 394.6 1006.9 403.6 1006.8 407.3 1008 409.1 1012 409.1 1026.3 409 1040.6 409 1054.9 409.1 1058.5 409.1 1060 407.7 1060 404.1 1059.9 386 1059.9 367.8 1060 349.7 1060 346 1058.6 344.2 1054.7 344.3 1040.7 344.4 1026.7 344.4 1012.8 344.3 1008.6 344.3 1006.8 345.9 1006.9 350.3 1007.1 359 1006.9 367.8 1006.9 376.6Z" fill="#FFFFFF"/><path d="M1063.2 459.3C1063.2 468.6 1063.3 478 1063.2 487.3 1063.2 492.6 1061.3 494.8 1056.1 494.8 1040.9 495 1025.8 494.9 1010.6 494.8 1006.1 494.8 1003.9 492.3 1003.9 487.9 1003.9 468.7 1003.9 449.6 1003.9 430.4 1003.9 425.8 1006.1 423.7 1010.7 423.8 1025.9 423.8 1041 423.8 1056.2 423.9 1061.5 423.9 1063.3 425.8 1063.3 431.3 1063.2 440.7 1063.2 450 1063.2 459.3ZM1006.9 458.9C1006.9 467.9 1007 476.9 1006.8 485.9 1006.7 490.1 1008.2 491.9 1012.6 491.9 1026.4 491.7 1040.2 491.8 1054 491.9 1058.2 491.9 1060 490.5 1060 486.1 1059.9 468.5 1059.9 450.8 1060 433.2 1060 428.7 1058.4 427 1053.9 427 1040.3 427.2 1026.6 427.2 1013 427 1008.5 426.9 1006.7 428.4 1006.8 433 1007.1 441.6 1006.9 450.3 1006.9 458.9Z" fill="#FFFFFF"/><path d="M1092.2 418.9C1092.2 430.7 1092.2 442.5 1092.2 454.4 1092.2 462 1092.2 462 1084.3 462 1081 462 1077.6 462 1074.3 461.9 1073.1 461.9 1071.8 461.6 1071.8 460 1071.8 458.4 1073.1 458.2 1074.3 458.1 1077.6 458 1081 457.9 1084.3 458 1087.4 458.1 1088.9 456.9 1088.9 453.6 1088.8 430.5 1088.8 407.3 1088.9 384.2 1088.9 381.2 1087.5 380.1 1084.6 380.1 1081.3 380.2 1077.9 380.1 1074.6 380 1073.4 380 1072.1 379.8 1071.9 378.3 1071.7 376.5 1073.3 376.2 1074.6 376.1 1079.3 376 1083.9 376 1088.6 376.1 1092.2 376.1 1092.2 378.8 1092.2 381.4 1092.2 393.9 1092.2 406.4 1092.2 418.9Z" fill="#FFFFFF"/><path d="M1033.5 358.2C1027.7 358.2 1021.9 358.2 1016.1 358.2 1014.7 358.2 1012.7 358.4 1012.7 356.2 1012.7 354.2 1014.6 354.1 1016.1 354.1 1027.9 354.1 1039.7 354.1 1051.5 354.1 1052.8 354.1 1054.5 354.2 1054.6 355.9 1054.8 358 1053 358.2 1051.5 358.2 1045.5 358.2 1039.5 358.1 1033.5 358.2 1033.5 358.2 1033.5 358.2 1033.5 358.2Z" fill="#FFFFFF"/><path d="M1036 371.9C1031 371.9 1026 371.9 1021.1 371.9 1019.7 371.9 1017.8 371.8 1017.8 369.8 1017.8 367.6 1019.7 367.8 1021.1 367.8 1031.1 367.8 1041 367.8 1051 367.8 1052.4 367.8 1054.4 367.6 1054.6 369.6 1054.8 372 1052.6 371.9 1051 371.9 1046 372 1041 371.9 1036 371.9 1036 371.9 1036 371.9 1036 371.9Z" fill="#FFFFFF"/><path d="M1036 401.1C1031 401.1 1026 401.1 1021.1 401.1 1019.7 401.1 1017.8 401.3 1017.8 399.1 1017.8 397.4 1019.3 397.1 1020.7 397.1 1031.2 397.1 1041.6 397.1 1052.1 397.1 1053.3 397.1 1054.6 397.4 1054.7 398.9 1054.9 400.7 1053.4 401.1 1052 401.1 1046.6 401.1 1041.3 401.1 1036 401.1 1036 401.1 1036 401.1 1036 401.1Z" fill="#FFFFFF"/><path d="M1035.9 386.1C1030.9 386.1 1025.9 386.1 1020.9 386.1 1019.6 386.1 1018 386 1017.8 384.3 1017.6 382.1 1019.5 382.1 1020.9 382 1031.1 382 1041.2 382 1051.4 382 1052.7 382 1054.3 382.1 1054.5 383.8 1054.7 386 1052.8 386 1051.4 386 1046.3 386.1 1041.1 386.1 1035.9 386.1Z" fill="#FFFFFF"/><path d="M1036.3 468.9C1031.5 468.9 1026.7 469 1021.9 468.9 1020.1 468.9 1017.8 469 1017.8 466.4 1017.8 464.2 1019.9 464.1 1021.5 464.1 1031.2 464.1 1041 464.1 1050.7 464.1 1052.3 464.1 1054.4 464.2 1054.5 466.4 1054.6 469.1 1052.2 468.8 1050.5 468.9 1045.9 469 1041.1 468.9 1036.3 468.9Z" fill="#FFFFFF"/><path d="M1033.5 440.9C1027.7 440.9 1021.9 440.9 1016.1 440.9 1014.6 440.9 1012.8 440.8 1012.8 438.8 1012.8 436.6 1014.7 436.8 1016.2 436.8 1027.8 436.8 1039.5 436.8 1051.1 436.8 1052.5 436.8 1054.5 436.6 1054.7 438.6 1054.9 441 1052.7 440.9 1051.1 440.9 1045.1 441 1039.3 441 1033.5 440.9 1033.5 441 1033.5 441 1033.5 440.9Z" fill="#FFFFFF"/><path d="M1036.2 454C1031 454 1025.9 454 1020.7 454 1019.4 454 1017.8 453.8 1017.8 452 1017.8 450.2 1019.3 450 1020.7 450 1031 450 1041.3 450 1051.6 450 1052.9 450 1054.5 450.2 1054.5 452 1054.5 453.8 1053 454 1051.6 454 1046.6 454.1 1041.4 454 1036.2 454Z" fill="#FFFFFF"/><path d="M1036 483.9C1031 483.9 1026 484 1021 483.9 1019.6 483.9 1017.7 483.8 1017.8 481.7 1017.9 480 1019.6 479.9 1020.9 479.9 1031 479.9 1041.2 479.9 1051.3 479.9 1052.8 479.9 1054.6 480 1054.5 482.1 1054.4 483.8 1052.7 483.9 1051.4 483.9 1046.3 483.9 1041.2 483.9 1036 483.9Z" fill="#FFFFFF"/><path d="M1014.7 401.1 1014.7 401.1C1015.8 401.1 1016.7 400.2 1016.7 399.1L1016.7 399.1C1016.7 398 1015.8 397.1 1014.7 397.1L1014.7 397.1C1013.6 397.1 1012.7 398 1012.7 399.1L1012.7 399.1C1012.7 400.2 1013.6 401.1 1014.7 401.1Z" fill="#FFFFFF"/><path d="M1014.7 386 1014.7 386C1015.8 386 1016.7 385.1 1016.7 384L1016.7 384C1016.7 382.9 1015.8 382 1014.7 382L1014.7 382C1013.6 382 1012.7 382.9 1012.7 384L1012.7 384C1012.7 385.1 1013.6 386 1014.7 386Z" fill="#FFFFFF"/><path d="M1014.7 371.9 1014.7 371.9C1015.8 371.9 1016.7 371 1016.7 369.9L1016.7 369.9C1016.7 368.8 1015.8 367.9 1014.7 367.9L1014.7 367.9C1013.6 367.9 1012.7 368.8 1012.7 369.9L1012.7 369.9C1012.7 371 1013.6 371.9 1014.7 371.9Z" fill="#FFFFFF"/><path d="M1014.7 454 1014.7 454C1015.8 454 1016.7 453.1 1016.7 452L1016.7 452C1016.7 450.9 1015.8 450 1014.7 450L1014.7 450C1013.6 450 1012.7 450.9 1012.7 452L1012.7 452C1012.7 453.1 1013.6 454 1014.7 454Z" fill="#FFFFFF"/><path d="M1014.7 468.5 1014.7 468.5C1015.8 468.5 1016.7 467.6 1016.7 466.5L1016.7 466.5C1016.7 465.4 1015.8 464.5 1014.7 464.5L1014.7 464.5C1013.6 464.5 1012.7 465.4 1012.7 466.5L1012.7 466.5C1012.7 467.6 1013.6 468.5 1014.7 468.5Z" fill="#FFFFFF"/><path d="M1014.7 483.9 1014.7 483.9C1015.8 483.9 1016.7 483 1016.7 481.9L1016.7 481.9C1016.7 480.8 1015.8 479.9 1014.7 479.9L1014.7 479.9C1013.6 479.9 1012.7 480.8 1012.7 481.9L1012.7 481.9C1012.7 483 1013.6 483.9 1014.7 483.9Z" fill="#FFFFFF"/></g></svg>