<svg width="683" height="683" xmlns="http://www.w3.org/2000/svg" xmlns:xlink="http://www.w3.org/1999/xlink" overflow="hidden"><defs><clipPath id="clip0"><rect x="192" y="-69" width="683" height="683"/></clipPath></defs><g clip-path="url(#clip0)" transform="translate(-192 69)"><path d="M322.157 682.2C283.738 678.198 254.391 671.394 224.109 659.388 181.822 642.714 147.405 620.436 114.322 588.287 50.9582 527.057 16.1412 449.82 12.5395 362.043 10.1383 305.349 24.4119 243.719 51.4918 193.828 54.6934 187.958 57.3613 182.222 57.3613 181.155 57.3613 180.221 44.4217 141.402 28.6807 94.9797 12.9396 48.4236 0 9.33789 0 8.13731 0 5.33594 5.33594 0 8.2707 0 9.33789 0 49.891 12.5395 98.4481 28.0137 146.872 43.3545 187.425 56.0273 188.492 56.0273 189.559 56.0273 197.163 52.8258 205.567 48.8238 232.914 35.7508 266.93 25.6125 300.146 20.41 321.757 17.075 373.249 17.075 394.859 20.41 468.095 31.7488 533.727 64.5648 584.952 115.39 616.434 146.605 641.646 184.49 658.188 224.776 668.593 250.522 675.396 275.868 680.599 308.817 682.733 323.358 682.867 374.716 680.599 390.857 669.393 470.763 633.643 539.864 576.148 593.223 525.857 639.779 464.894 668.86 394.859 679.665 381.386 681.666 333.63 683.4 322.157 682.2ZM389.123 610.298C467.562 597.225 535.328 551.336 576.148 483.836 593.089 455.689 606.563 417.27 611.098 384.188 613.233 368.447 613.233 331.362 611.098 316.154 607.63 290.542 596.958 255.992 585.619 233.447 559.606 181.422 512.784 136.066 460.758 111.921 425.941 95.9135 394.993 88.5766 356.841 87.1092 304.415 85.2416 255.325 97.7811 210.903 124.461 204.366 128.329 198.23 130.997 196.229 130.997 194.362 130.864 173.285 124.594 149.406 116.99 125.528 109.387 105.918 103.25 105.652 103.384 105.518 103.517 111.654 122.326 119.392 145.271 127.129 168.215 133.398 188.492 133.398 190.493 133.398 192.627 129.797 199.431 124.594 207.435 100.316 244.253 85.7752 287.74 82.8404 333.096 81.5064 351.905 82.5736 377.384 85.375 392.858 100.449 477.566 153.141 547.734 230.112 586.019 258.793 600.293 287.607 608.43 325.492 612.832 335.23 614.033 377.384 612.299 389.123 610.298Z" fill="#FFFFFF" transform="matrix(1 0 0 -1 192 614)"/><path d="M243.452 504.913C222.775 501.712 213.438 497.843 203.699 488.372 179.821 465.561 173.018 420.339 187.558 381.786 201.298 345.102 247.588 284.806 286.006 253.59 323.358 223.176 366.045 203.032 414.869 192.761 427.809 189.959 451.687 189.959 462.092 192.761 481.969 197.963 505.98 215.172 513.717 229.846 520.788 243.185 523.989 271.599 519.454 280.27 517.719 283.605 512.25 286.807 486.504 299.346 469.429 307.75 451.554 316.021 446.618 318.022 430.343 324.425 426.208 322.824 411.934 304.949 394.726 283.605 391.658 280.137 390.19 280.137 389.523 280.137 384.188 282.271 378.451 284.672 356.707 294.277 326.159 317.755 304.415 341.9 295.077 352.172 280.137 371.915 280.137 373.782 280.137 374.449 284.272 379.785 289.208 385.522 301.881 400.062 306.149 408.199 305.883 417.537 305.883 423.673 303.615 430.077 291.609 458.224 283.738 476.633 275.735 493.841 273.867 496.642 267.731 505.58 260.26 507.581 243.452 504.913Z" fill="#FFFFFF" transform="matrix(1 0 0 -1 192 614)"/></g></svg>